<?xml version="1.0" encoding="iso-8859-1"?>
<!-- Generator: Adobe Illustrator 16.0.0, SVG Export Plug-In . SVG Version: 6.00 Build 0)  -->
<!DOCTYPE svg PUBLIC "-//W3C//DTD SVG 1.1//EN" "http://www.w3.org/Graphics/SVG/1.1/DTD/svg11.dtd">
<svg version="1.1" xmlns="http://www.w3.org/2000/svg" xmlns:xlink="http://www.w3.org/1999/xlink" x="0px" y="0px" width="24px"
	 height="32px" viewBox="0 0 32 32" style="enable-background:new 0 0 32 32;" xml:space="preserve">
<g id="file-pdf">
	<path d="M17.954,8h4.741c0.387,0,0.734-0.232,0.882-0.59c0.148-0.355,0.066-0.767-0.207-1.04l-4.741-4.741
		c-0.272-0.272-0.684-0.354-1.039-0.206C17.232,1.569,17,1.918,17,2.305v4.741C17,7.573,17.427,8,17.954,8z"/>
	<path d="M29,16h-4v-5.046C25,10.427,24.573,10,24.046,10h-7.124C15.86,10,15,9.14,15,8.078V0.954C15,0.427,14.573,0,14.046,0H2.965
		C1.327,0,0,1.327,0,2.965v26.07C0,30.673,1.327,32,2.965,32h19.07c1.298,0,2.389-0.839,2.791-2H29c1.633,0,3-1.367,3-3v-8.1
		C32,17.268,30.633,16,29,16z M30,27.026C30,27.555,29.527,28,29,28h-4H9V18h16h4c0.527,0,1,0.398,1,0.927V27.026z"/>
	<polygon points="22,20 22,21 22,26 23,26 23,24 25,24 25,23 23,23 23,21 26,21 26,20 23,20 	"/>
	<path d="M13.4,20H12h-1v4v2h1v-2h1.4c0.883,0,1.6-0.896,1.6-2S14.283,20,13.4,20z M13.4,23H12v-2h1.4c0.283,0,0.6,0.428,0.6,1
		S13.684,23,13.4,23z"/>
	<path d="M19,20h-3v6h3c1.104,0,2-0.896,2-2v-2C21,20.896,20.104,20,19,20z M20,24c0,0.552-0.448,1-1,1h-2v-4h2c0.552,0,1,0.448,1,1
		V24z"/>
</g>
<g id="Layer_1">
</g>
</svg>
