<?xml version="1.0" encoding="utf-8"?>
<!-- Generator: Adobe Illustrator 19.1.0, SVG Export Plug-In . SVG Version: 6.00 Build 0)  -->
<svg version="1.1" id="Layer_1" xmlns="http://www.w3.org/2000/svg" xmlns:xlink="http://www.w3.org/1999/xlink" x="0px" y="0px"
	 width="192px" height="26.7px" viewBox="-543 387.3 192 26.7" enable-background="new -543 387.3 192 26.7" xml:space="preserve">
<g>
	<path d="M-406.9,403.4c0.5,0,1,0.5,1,1s-0.4,1-1,1s-1-0.5-1-1C-407.9,403.8-407.4,403.4-406.9,403.4v-0.2c-0.6,0-1.2,0.5-1.2,1.2
		s0.5,1.2,1.2,1.2c0.6,0,1.2-0.5,1.2-1.2c0-0.6-0.5-1.2-1.2-1.2V403.4L-406.9,403.4z"/>
	<path d="M-407.1,403.8h0.4c0.2,0,0.4,0,0.4,0.2c0,0.3-0.3,0.3-0.5,0.3h-0.3v0.1h0.3l0.4,0.6h0.2l-0.4-0.6c0.3,0,0.5-0.1,0.5-0.4
		c0-0.1-0.1-0.2-0.2-0.3s-0.2-0.1-0.3-0.1h-0.6v1.3h0.2v-1.1H-407.1z"/>
	<path d="M-480.5,408.3c1.4-1.4,6-4.1,7.6-4.6l-9.4-6.8l0.5-0.3l3.4,2.5c0.5,0.3,4,1,5.4-1l-7.6-5.1c-1.3,1.3-5.9,4-7.7,4.7l9.9,6.8
		l-0.3,0.4l-3.7-2.5c-1.2-0.7-4.1-1.4-5.9,0.8L-480.5,408.3L-480.5,408.3z"/>
	<polygon points="-409.1,405.5 -409.1,396.3 -412.4,396.3 -412.4,405.5 	"/>
	<polygon points="-446.7,396.3 -436.2,396.3 -436.2,398.3 -441.1,403 -436.2,403 -436.2,405.5 -446.7,405.5 -446.7,403.5 
		-441.8,398.7 -446.7,398.7 	"/>
	<polygon points="-424.3,396.3 -421,396.3 -421,399.3 -417.7,396.3 -413.2,396.3 -417.9,400.7 -413.2,405.5 -417.7,405.5 
		-421,402.5 -421,405.5 -424.3,405.5 	"/>
	<path d="M-469.4,402.5c0,2.1,1.3,3.2,4.8,3.2h1.9c2.8,0,4.3-0.8,4.3-3.3c0-2-1.9-2.7-3.8-2.9c-1.9-0.2-3.1-0.2-3.1-0.8
		c0-0.4,0.5-0.6,1.1-0.6c0.5,0,1.7,0.5,1.7,1h3.8c0-1.9-1.5-3.2-4.6-3.2h-1.4c-2.8,0-4.8,1.2-4.8,2.7c0,1.4,0,3.2,4.1,3.3
		c2.2,0.2,3,0.1,3,0.8c0,0.4-0.5,0.6-1,0.6s-1.5-0.3-1.5-0.9L-469.4,402.5L-469.4,402.5z"/>
	<path d="M-452.1,405.7c4.1,0,4.8-1.8,4.8-3.3v-6.1h-3.3v5.8c0,0.3,0.2,1.3-1.8,1.3c-2.1,0-2-1-2-1.3v-5.8h-3.3v6.2
		c0,1.4,0.4,3.3,4.6,3.3L-452.1,405.7L-452.1,405.7z"/>
	<path d="M-429.9,405.7c4,0,4.8-1.8,4.8-3.3v-6.1h-3.3v5.8c0,0.3,0.2,1.3-1.8,1.3c-2.1,0-2-1-2-1.3v-5.8h-3.3v6.2
		c0,1.4,0.4,3.3,4.6,3.3L-429.9,405.7L-429.9,405.7z"/>
</g>
</svg>
