<?xml version="1.0" encoding="utf-8"?>
<!-- Generator: Adobe Illustrator 19.1.0, SVG Export Plug-In . SVG Version: 6.00 Build 0)  -->
<svg version="1.1" id="Layer_1" xmlns="http://www.w3.org/2000/svg" xmlns:xlink="http://www.w3.org/1999/xlink" x="0px" y="0px"
	 width="192px" height="26.7px" viewBox="-543 387.3 192 26.7" enable-background="new -543 387.3 192 26.7" xml:space="preserve">
<g>
	<rect x="-426" y="391.5" fill="#231F20" width="0.3" height="18.2"/>
	<path fill="#231F20" d="M-412.9,406.1c-3,2-7.2,1.2-9.2-1.8c-2-3-1.2-7.1,1.8-9.2c3-2,7.2-1.2,9.2,1.8
		C-409,400-409.8,404.1-412.9,406.1"/>
	<g>
		<defs>
			<path id="SVGID_1_" d="M-420.8,400.2c0-2.1,1.7-3.9,3.9-3.9c2.1,0,3.9,1.7,3.9,3.9c0,2.1-1.7,3.9-3.9,3.9
				C-419,404-420.8,402.3-420.8,400.2"/>
		</defs>
		<clipPath id="SVGID_2_">
			<use xlink:href="#SVGID_1_"  overflow="visible"/>
		</clipPath>
		<rect x="-420.8" y="396.3" clip-path="url(#SVGID_2_)" fill="#262821" width="7.7" height="7.7"/>
		<path clip-path="url(#SVGID_2_)" fill="#2B2E28" d="M-424.7,398.1c0-3.3,2.7-6,6.1-6c3.3,0,6.1,2.7,6.1,6c0,3.3-2.7,6-6.1,6
			C-422,404.1-424.7,401.4-424.7,398.1"/>
		<path clip-path="url(#SVGID_2_)" fill="#2F322D" d="M-424.6,398.1c0-3.3,2.7-6,6-6c3.3,0,6,2.7,6,6c0,3.3-2.7,6-6,6
			C-422,404-424.6,401.3-424.6,398.1"/>
		<path clip-path="url(#SVGID_2_)" fill="#343633" d="M-424.6,398.1c0-3.3,2.7-5.9,5.9-5.9c3.3,0,5.9,2.6,5.9,5.9
			c0,3.3-2.7,5.9-5.9,5.9C-421.9,404-424.6,401.3-424.6,398.1"/>
		<path clip-path="url(#SVGID_2_)" fill="#383A38" d="M-424.5,398.1c0-3.2,2.6-5.8,5.9-5.8c3.2,0,5.9,2.6,5.9,5.8
			c0,3.2-2.6,5.8-5.9,5.8C-421.9,403.9-424.5,401.3-424.5,398.1"/>
		<path clip-path="url(#SVGID_2_)" fill="#3B3E3B" d="M-424.5,398.1c0-3.2,2.6-5.8,5.8-5.8c3.2,0,5.8,2.6,5.8,5.8
			c0,3.2-2.6,5.8-5.8,5.8C-421.9,403.8-424.5,401.2-424.5,398.1"/>
		<path clip-path="url(#SVGID_2_)" fill="#3F4240" d="M-424.4,398.1c0-3.2,2.6-5.7,5.7-5.7c3.2,0,5.7,2.6,5.7,5.7
			c0,3.2-2.6,5.7-5.7,5.7C-421.8,403.8-424.4,401.2-424.4,398.1"/>
		<path clip-path="url(#SVGID_2_)" fill="#424544" d="M-424.3,398.1c0-3.1,2.5-5.7,5.7-5.7c3.1,0,5.7,2.5,5.7,5.7
			c0,3.1-2.5,5.7-5.7,5.7C-421.8,403.7-424.3,401.2-424.3,398.1"/>
		<path clip-path="url(#SVGID_2_)" fill="#464947" d="M-424.3,398.1c0-3.1,2.5-5.6,5.6-5.6c3.1,0,5.6,2.5,5.6,5.6
			c0,3.1-2.5,5.6-5.6,5.6C-421.7,403.6-424.3,401.1-424.3,398.1"/>
		<path clip-path="url(#SVGID_2_)" fill="#484B4B" d="M-424.2,398.1c0-3.1,2.5-5.5,5.6-5.5c3.1,0,5.6,2.5,5.6,5.5
			c0,3.1-2.5,5.5-5.6,5.5C-421.7,403.6-424.2,401.1-424.2,398.1"/>
		<path clip-path="url(#SVGID_2_)" fill="#4B4F4F" d="M-424.1,398.1c0-3,2.5-5.5,5.5-5.5c3,0,5.5,2.4,5.5,5.5c0,3-2.5,5.5-5.5,5.5
			C-421.7,403.5-424.1,401.1-424.1,398.1"/>
		<path clip-path="url(#SVGID_2_)" fill="#4F5252" d="M-424.1,398.1c0-3,2.4-5.4,5.4-5.4c3,0,5.4,2.4,5.4,5.4c0,3-2.4,5.4-5.4,5.4
			C-421.6,403.5-424.1,401-424.1,398.1"/>
		<path clip-path="url(#SVGID_2_)" fill="#515555" d="M-424,398.1c0-2.9,2.4-5.3,5.4-5.3s5.4,2.4,5.4,5.3c0,2.9-2.4,5.3-5.4,5.3
			S-424,401-424,398.1"/>
		<path clip-path="url(#SVGID_2_)" fill="#545758" d="M-423.9,398.1c0-2.9,2.4-5.3,5.3-5.3c2.9,0,5.3,2.4,5.3,5.3
			c0,2.9-2.4,5.3-5.3,5.3C-421.6,403.3-423.9,401-423.9,398.1"/>
		<path clip-path="url(#SVGID_2_)" fill="#575B5C" d="M-423.9,398.1c0-2.9,2.3-5.2,5.2-5.2c2.9,0,5.2,2.3,5.2,5.2
			c0,2.9-2.3,5.2-5.2,5.2C-421.5,403.3-423.9,400.9-423.9,398.1"/>
		<path clip-path="url(#SVGID_2_)" fill="#5A5E5E" d="M-423.8,398.1c0-2.8,2.3-5.2,5.2-5.2c2.9,0,5.2,2.3,5.2,5.2
			c0,2.8-2.3,5.2-5.2,5.2C-421.5,403.2-423.8,400.9-423.8,398.1"/>
		<path clip-path="url(#SVGID_2_)" fill="#5C6061" d="M-423.8,398.1c0-2.8,2.3-5.1,5.1-5.1c2.8,0,5.1,2.3,5.1,5.1
			c0,2.8-2.3,5.1-5.1,5.1C-421.5,403.1-423.8,400.9-423.8,398.1"/>
		<path clip-path="url(#SVGID_2_)" fill="#5F6264" d="M-423.7,398.1c0-2.8,2.3-5,5-5s5,2.2,5,5c0,2.8-2.3,5-5,5
			S-423.7,400.8-423.7,398.1"/>
		<path clip-path="url(#SVGID_2_)" fill="#606466" d="M-423.6,398.1c0-2.7,2.2-5,5-5c2.8,0,5,2.2,5,5c0,2.7-2.2,5-5,5
			C-421.4,403-423.6,400.8-423.6,398.1"/>
		<path clip-path="url(#SVGID_2_)" fill="#626769" d="M-423.6,398.1c0-2.7,2.2-4.9,4.9-4.9c2.7,0,4.9,2.2,4.9,4.9
			c0,2.7-2.2,4.9-4.9,4.9C-421.4,402.9-423.6,400.8-423.6,398.1"/>
		<path clip-path="url(#SVGID_2_)" fill="#64696B" d="M-423.5,398.1c0-2.7,2.2-4.8,4.9-4.8c2.7,0,4.9,2.2,4.9,4.8
			c0,2.7-2.2,4.8-4.9,4.8C-421.3,402.9-423.5,400.7-423.5,398.1"/>
		<path clip-path="url(#SVGID_2_)" fill="#656A6D" d="M-423.4,398.1c0-2.6,2.1-4.8,4.8-4.8c2.6,0,4.8,2.1,4.8,4.8
			c0,2.6-2.1,4.8-4.8,4.8C-421.3,402.8-423.4,400.7-423.4,398.1"/>
		<path clip-path="url(#SVGID_2_)" fill="#686C6E" d="M-423.4,398.1c0-2.6,2.1-4.7,4.7-4.7c2.6,0,4.7,2.1,4.7,4.7
			c0,2.6-2.1,4.7-4.7,4.7C-421.3,402.8-423.4,400.7-423.4,398.1"/>
		<path clip-path="url(#SVGID_2_)" fill="#676C6F" d="M-423.3,398.1c0-2.6,2.1-4.6,4.7-4.6c2.6,0,4.7,2.1,4.7,4.6
			c0,2.6-2.1,4.6-4.7,4.6C-421.2,402.7-423.3,400.6-423.3,398.1"/>
		<path clip-path="url(#SVGID_2_)" fill="#676C6F" d="M-423.2,398.1c0-2.5,2.1-4.6,4.6-4.6c2.5,0,4.6,2.1,4.6,4.6
			c0,2.5-2.1,4.6-4.6,4.6C-421.2,402.6-423.2,400.6-423.2,398.1"/>
		<path clip-path="url(#SVGID_2_)" fill="#676C6F" d="M-423.2,398.1c0-2.5,2-4.5,4.5-4.5c2.5,0,4.5,2,4.5,4.5c0,2.5-2,4.5-4.5,4.5
			C-421.2,402.6-423.2,400.5-423.2,398.1"/>
		<path clip-path="url(#SVGID_2_)" fill="#6A7073" d="M-423,398.1c0-2.4,2-4.4,4.4-4.4c2.4,0,4.4,2,4.4,4.4c0,2.4-2,4.4-4.4,4.4
			C-421.1,402.4-423,400.5-423,398.1"/>
		<path clip-path="url(#SVGID_2_)" fill="#6D7276" d="M-422.9,398.1c0-2.3,1.9-4.2,4.2-4.2c2.3,0,4.2,1.9,4.2,4.2
			c0,2.3-1.9,4.2-4.2,4.2C-421,402.3-422.9,400.4-422.9,398.1"/>
		<path clip-path="url(#SVGID_2_)" fill="#707679" d="M-422.7,398.1c0-2.3,1.8-4.1,4.1-4.1c2.3,0,4.1,1.8,4.1,4.1
			c0,2.3-1.8,4.1-4.1,4.1C-420.9,402.1-422.7,400.3-422.7,398.1"/>
		<path clip-path="url(#SVGID_2_)" fill="#74787D" d="M-422.6,398.1c0-2.2,1.8-3.9,3.9-3.9c2.2,0,3.9,1.8,3.9,3.9
			c0,2.2-1.8,3.9-3.9,3.9C-420.8,402-422.6,400.2-422.6,398.1"/>
		<path clip-path="url(#SVGID_2_)" fill="#757C7F" d="M-422.4,398.1c0-2.1,1.7-3.8,3.8-3.8c2.1,0,3.8,1.7,3.8,3.8
			c0,2.1-1.7,3.8-3.8,3.8C-420.7,401.8-422.4,400.1-422.4,398.1"/>
		<path clip-path="url(#SVGID_2_)" fill="#787E81" d="M-422.3,398.1c0-2,1.6-3.6,3.6-3.6s3.6,1.6,3.6,3.6c0,2-1.6,3.6-3.6,3.6
			S-422.3,400.1-422.3,398.1"/>
		<path clip-path="url(#SVGID_2_)" fill="#7B8084" d="M-422.2,398.1c0-1.9,1.6-3.5,3.5-3.5c1.9,0,3.5,1.6,3.5,3.5
			c0,1.9-1.6,3.5-3.5,3.5C-420.6,401.5-422.2,400-422.2,398.1"/>
		<path clip-path="url(#SVGID_2_)" fill="#7F8387" d="M-422,398.1c0-1.8,1.5-3.3,3.4-3.3c1.9,0,3.4,1.5,3.4,3.3
			c0,1.8-1.5,3.3-3.4,3.3C-420.5,401.4-422,399.9-422,398.1"/>
		<path clip-path="url(#SVGID_2_)" fill="#80858A" d="M-421.9,398.1c0-1.8,1.4-3.2,3.2-3.2c1.8,0,3.2,1.4,3.2,3.2
			c0,1.8-1.4,3.2-3.2,3.2C-420.4,401.2-421.9,399.8-421.9,398.1"/>
		<path clip-path="url(#SVGID_2_)" fill="#83898D" d="M-421.7,398.1c0-1.7,1.4-3,3.1-3c1.7,0,3.1,1.4,3.1,3c0,1.7-1.4,3-3.1,3
			C-420.3,401.1-421.7,399.7-421.7,398.1"/>
		<path clip-path="url(#SVGID_2_)" fill="#868C91" d="M-421.6,398.1c0-1.6,1.3-2.9,2.9-2.9s2.9,1.3,2.9,2.9c0,1.6-1.3,2.9-2.9,2.9
			S-421.6,399.7-421.6,398.1"/>
		<path clip-path="url(#SVGID_2_)" fill="#888E93" d="M-421.4,398.1c0-1.5,1.2-2.8,2.8-2.8c1.5,0,2.8,1.2,2.8,2.8
			c0,1.5-1.2,2.8-2.8,2.8C-420.2,400.8-421.4,399.6-421.4,398.1"/>
		<path clip-path="url(#SVGID_2_)" fill="#8A9096" d="M-421.3,398.1c0-1.4,1.2-2.6,2.6-2.6c1.4,0,2.6,1.2,2.6,2.6
			c0,1.4-1.2,2.6-2.6,2.6C-420.1,400.7-421.3,399.5-421.3,398.1"/>
		<path clip-path="url(#SVGID_2_)" fill="#8E939A" d="M-421.1,398.1c0-1.4,1.1-2.5,2.5-2.5c1.4,0,2.5,1.1,2.5,2.5
			c0,1.4-1.1,2.5-2.5,2.5C-420,400.5-421.1,399.4-421.1,398.1"/>
		<path clip-path="url(#SVGID_2_)" fill="#91969C" d="M-421,398.1c0-1.3,1-2.3,2.3-2.3c1.3,0,2.3,1,2.3,2.3c0,1.3-1,2.3-2.3,2.3
			C-419.9,400.4-421,399.3-421,398.1"/>
		<path clip-path="url(#SVGID_2_)" fill="#94999F" d="M-420.8,398.1c0-1.2,1-2.2,2.2-2.2c1.2,0,2.2,1,2.2,2.2c0,1.2-1,2.2-2.2,2.2
			C-419.8,400.2-420.8,399.2-420.8,398.1"/>
		<path clip-path="url(#SVGID_2_)" fill="#979CA3" d="M-420.7,398.1c0-1.1,0.9-2,2-2c1.1,0,2,0.9,2,2c0,1.1-0.9,2-2,2
			C-419.8,400.1-420.7,399.2-420.7,398.1"/>
		<path clip-path="url(#SVGID_2_)" fill="#999EA5" d="M-420.5,398.1c0-1,0.8-1.9,1.9-1.9c1,0,1.9,0.8,1.9,1.9c0,1-0.8,1.9-1.9,1.9
			C-419.7,399.9-420.5,399.1-420.5,398.1"/>
		<path clip-path="url(#SVGID_2_)" fill="#9CA1A8" d="M-420.4,398.1c0-1,0.8-1.7,1.7-1.7c1,0,1.7,0.8,1.7,1.7c0,0.9-0.8,1.7-1.7,1.7
			C-419.6,399.8-420.4,399-420.4,398.1"/>
		<path clip-path="url(#SVGID_2_)" fill="#9FA3AA" d="M-420.2,398.1c0-0.9,0.7-1.6,1.6-1.6c0.9,0,1.6,0.7,1.6,1.6
			c0,0.9-0.7,1.6-1.6,1.6C-419.5,399.6-420.2,398.9-420.2,398.1"/>
		<path clip-path="url(#SVGID_2_)" fill="#A1A5AC" d="M-420.1,398.1c0-0.8,0.6-1.4,1.4-1.4c0.8,0,1.4,0.6,1.4,1.4
			c0,0.8-0.6,1.4-1.4,1.4C-419.4,399.5-420.1,398.8-420.1,398.1"/>
		<path clip-path="url(#SVGID_2_)" fill="#A1A6AD" d="M-419.9,398.1c0-0.7,0.6-1.3,1.3-1.3c0.7,0,1.3,0.6,1.3,1.3
			c0,0.7-0.6,1.3-1.3,1.3C-419.4,399.3-419.9,398.8-419.9,398.1"/>
		<path clip-path="url(#SVGID_2_)" fill="#A3A7AE" d="M-419.8,398.1c0-0.6,0.5-1.1,1.1-1.1c0.6,0,1.1,0.5,1.1,1.1
			c0,0.6-0.5,1.1-1.1,1.1C-419.3,399.2-419.8,398.7-419.8,398.1"/>
		<path clip-path="url(#SVGID_2_)" fill="#A3A7AE" d="M-419.6,398.1c0-0.5,0.4-1,1-1c0.5,0,1,0.4,1,1c0,0.5-0.4,1-1,1
			C-419.2,399-419.6,398.6-419.6,398.1"/>
		<path clip-path="url(#SVGID_2_)" fill="#A3A7AE" d="M-419.5,398.1c0-0.5,0.4-0.8,0.8-0.8c0.5,0,0.8,0.4,0.8,0.8
			c0,0.5-0.4,0.8-0.8,0.8C-419.1,398.9-419.5,398.5-419.5,398.1"/>
		<path clip-path="url(#SVGID_2_)" fill="#A3A7AE" d="M-419.3,398.1c0-0.4,0.3-0.7,0.7-0.7c0.4,0,0.7,0.3,0.7,0.7
			c0,0.4-0.3,0.7-0.7,0.7C-419,398.7-419.3,398.4-419.3,398.1"/>
		<path clip-path="url(#SVGID_2_)" fill="#A4A9B0" d="M-419.3,398.1c0-0.4,0.3-0.7,0.7-0.7c0.4,0,0.7,0.3,0.7,0.7
			c0,0.4-0.3,0.7-0.7,0.7C-419,398.7-419.3,398.4-419.3,398.1"/>
		<path clip-path="url(#SVGID_2_)" fill="#A5A9B0" d="M-419.3,398.1c0-0.4,0.3-0.7,0.7-0.7c0.4,0,0.7,0.3,0.7,0.7
			c0,0.4-0.3,0.7-0.7,0.7C-419,398.7-419.3,398.4-419.3,398.1"/>
		<path clip-path="url(#SVGID_2_)" fill="#A6AAB1" d="M-419.3,398.1c0-0.4,0.3-0.7,0.7-0.7c0.4,0,0.7,0.3,0.7,0.7
			c0,0.4-0.3,0.7-0.7,0.7C-419,398.7-419.3,398.4-419.3,398.1"/>
		<path clip-path="url(#SVGID_2_)" fill="#A7ABB2" d="M-419.3,398.1c0-0.4,0.3-0.7,0.7-0.7c0.4,0,0.7,0.3,0.7,0.7
			c0,0.4-0.3,0.7-0.7,0.7C-419,398.7-419.3,398.4-419.3,398.1"/>
		<path clip-path="url(#SVGID_2_)" fill="#AAAEB5" d="M-419.3,398.1c0-0.4,0.3-0.7,0.7-0.7c0.4,0,0.7,0.3,0.7,0.7
			c0,0.4-0.3,0.7-0.7,0.7C-419,398.7-419.3,398.4-419.3,398.1"/>
		<path clip-path="url(#SVGID_2_)" fill="#AAAEB5" d="M-419.3,398.1c0-0.4,0.3-0.6,0.6-0.6c0.4,0,0.6,0.3,0.6,0.6
			c0,0.4-0.3,0.6-0.6,0.6C-419,398.7-419.3,398.4-419.3,398.1"/>
		<path clip-path="url(#SVGID_2_)" fill="#ADB1B8" d="M-419.3,398.1c0-0.4,0.3-0.6,0.6-0.6c0.4,0,0.6,0.3,0.6,0.6
			c0,0.4-0.3,0.6-0.6,0.6C-419,398.7-419.3,398.4-419.3,398.1"/>
		<path clip-path="url(#SVGID_2_)" fill="#ADB1B8" d="M-419.3,398.1c0-0.3,0.3-0.6,0.6-0.6c0.3,0,0.6,0.3,0.6,0.6
			c0,0.3-0.3,0.6-0.6,0.6C-419,398.7-419.3,398.4-419.3,398.1"/>
		<path clip-path="url(#SVGID_2_)" fill="#AFB3B9" d="M-419.3,398.1c0-0.3,0.3-0.6,0.6-0.6c0.3,0,0.6,0.3,0.6,0.6
			c0,0.3-0.3,0.6-0.6,0.6C-419,398.7-419.3,398.4-419.3,398.1"/>
		<path clip-path="url(#SVGID_2_)" fill="#B0B4BB" d="M-419.3,398.1c0-0.3,0.3-0.6,0.6-0.6c0.3,0,0.6,0.3,0.6,0.6
			c0,0.3-0.3,0.6-0.6,0.6C-419,398.7-419.3,398.4-419.3,398.1"/>
		<path clip-path="url(#SVGID_2_)" fill="#B1B6BD" d="M-419.3,398.1c0-0.3,0.3-0.6,0.6-0.6c0.3,0,0.6,0.3,0.6,0.6
			c0,0.3-0.3,0.6-0.6,0.6C-419,398.7-419.3,398.4-419.3,398.1"/>
		<path clip-path="url(#SVGID_2_)" fill="#B4B7BE" d="M-419.2,398.1c0-0.3,0.3-0.6,0.6-0.6c0.3,0,0.6,0.3,0.6,0.6
			c0,0.3-0.3,0.6-0.6,0.6C-419,398.6-419.2,398.4-419.2,398.1"/>
		<path clip-path="url(#SVGID_2_)" fill="#B4B8BF" d="M-419.2,398.1c0-0.3,0.3-0.6,0.6-0.6c0.3,0,0.6,0.3,0.6,0.6
			c0,0.3-0.3,0.6-0.6,0.6C-419,398.6-419.2,398.4-419.2,398.1"/>
		<path clip-path="url(#SVGID_2_)" fill="#B6BAC1" d="M-419.2,398.1c0-0.3,0.3-0.6,0.6-0.6c0.3,0,0.6,0.3,0.6,0.6
			c0,0.3-0.3,0.6-0.6,0.6C-419,398.6-419.2,398.4-419.2,398.1"/>
		<path clip-path="url(#SVGID_2_)" fill="#B6BAC1" d="M-419.2,398.1c0-0.3,0.3-0.6,0.6-0.6c0.3,0,0.6,0.3,0.6,0.6
			c0,0.3-0.3,0.6-0.6,0.6C-419,398.6-419.2,398.4-419.2,398.1"/>
		<path clip-path="url(#SVGID_2_)" fill="#BABDC4" d="M-419.2,398.1c0-0.3,0.3-0.6,0.6-0.6c0.3,0,0.6,0.3,0.6,0.6
			c0,0.3-0.3,0.6-0.6,0.6C-419,398.6-419.2,398.4-419.2,398.1"/>
		<path clip-path="url(#SVGID_2_)" fill="#BABDC4" d="M-419.2,398.1c0-0.3,0.2-0.6,0.6-0.6c0.3,0,0.6,0.2,0.6,0.6
			c0,0.3-0.3,0.6-0.6,0.6C-419,398.6-419.2,398.4-419.2,398.1"/>
		<path clip-path="url(#SVGID_2_)" fill="#BBBEC5" d="M-419.2,398.1c0-0.3,0.2-0.5,0.5-0.5c0.3,0,0.5,0.2,0.5,0.5
			c0,0.3-0.2,0.5-0.5,0.5C-419,398.6-419.2,398.4-419.2,398.1"/>
		<path clip-path="url(#SVGID_2_)" fill="#BCC1C8" d="M-419.2,398.1c0-0.3,0.2-0.5,0.5-0.5c0.3,0,0.5,0.2,0.5,0.5
			c0,0.3-0.2,0.5-0.5,0.5C-418.9,398.6-419.2,398.3-419.2,398.1"/>
		<path clip-path="url(#SVGID_2_)" fill="#BCC1C8" d="M-419.2,398.1c0-0.3,0.2-0.5,0.5-0.5c0.3,0,0.5,0.2,0.5,0.5
			c0,0.3-0.2,0.5-0.5,0.5C-418.9,398.6-419.2,398.3-419.2,398.1"/>
		<path clip-path="url(#SVGID_2_)" fill="#BEC2C9" d="M-419.2,398.1c0-0.3,0.2-0.5,0.5-0.5c0.3,0,0.5,0.2,0.5,0.5
			c0,0.3-0.2,0.5-0.5,0.5C-418.9,398.6-419.2,398.3-419.2,398.1"/>
		<path clip-path="url(#SVGID_2_)" fill="#BEC2C9" d="M-419.2,398.1c0-0.3,0.2-0.5,0.5-0.5c0.3,0,0.5,0.2,0.5,0.5
			c0,0.3-0.2,0.5-0.5,0.5C-418.9,398.6-419.2,398.3-419.2,398.1"/>
		<path clip-path="url(#SVGID_2_)" fill="#C0C3C9" d="M-419.2,398.1c0-0.3,0.2-0.5,0.5-0.5c0.3,0,0.5,0.2,0.5,0.5
			c0,0.3-0.2,0.5-0.5,0.5C-418.9,398.6-419.2,398.3-419.2,398.1"/>
		<path clip-path="url(#SVGID_2_)" fill="#C0C3C9" d="M-419.2,398.1c0-0.3,0.2-0.5,0.5-0.5c0.3,0,0.5,0.2,0.5,0.5
			c0,0.3-0.2,0.5-0.5,0.5C-418.9,398.6-419.2,398.3-419.2,398.1"/>
		<path clip-path="url(#SVGID_2_)" fill="#C0C3C9" d="M-419.1,398.1c0-0.3,0.2-0.5,0.5-0.5c0.3,0,0.5,0.2,0.5,0.5
			c0,0.3-0.2,0.5-0.5,0.5C-418.9,398.5-419.1,398.3-419.1,398.1"/>
		<path clip-path="url(#SVGID_2_)" fill="#C0C3C9" d="M-419.1,398.1c0-0.3,0.2-0.5,0.5-0.5c0.3,0,0.5,0.2,0.5,0.5
			c0,0.3-0.2,0.5-0.5,0.5C-418.9,398.5-419.1,398.3-419.1,398.1"/>
		<path clip-path="url(#SVGID_2_)" fill="#C3C6CD" d="M-419.1,398.1c0-0.3,0.2-0.5,0.5-0.5c0.3,0,0.5,0.2,0.5,0.5
			c0,0.3-0.2,0.5-0.5,0.5C-418.9,398.5-419.1,398.3-419.1,398.1"/>
		<path clip-path="url(#SVGID_2_)" fill="#C3C6CD" d="M-419.1,398.1c0-0.2,0.2-0.4,0.4-0.4c0.2,0,0.4,0.2,0.4,0.4
			c0,0.2-0.2,0.4-0.4,0.4C-418.9,398.5-419.1,398.3-419.1,398.1"/>
		<path clip-path="url(#SVGID_2_)" fill="#C6C9CF" d="M-419.1,398.1c0-0.2,0.2-0.4,0.4-0.4c0.2,0,0.4,0.2,0.4,0.4
			c0,0.2-0.2,0.4-0.4,0.4C-418.9,398.5-419.1,398.3-419.1,398.1"/>
		<path clip-path="url(#SVGID_2_)" fill="#C6C9CF" d="M-419.1,398.1c0-0.2,0.2-0.4,0.4-0.4c0.2,0,0.4,0.2,0.4,0.4
			c0,0.2-0.2,0.4-0.4,0.4C-418.9,398.5-419.1,398.3-419.1,398.1"/>
		<path clip-path="url(#SVGID_2_)" fill="#C8CBD1" d="M-419,398.1c0-0.2,0.2-0.4,0.4-0.4c0.2,0,0.4,0.2,0.4,0.4
			c0,0.2-0.2,0.4-0.4,0.4C-418.9,398.4-419,398.3-419,398.1"/>
		<path clip-path="url(#SVGID_2_)" fill="#C9CDD3" d="M-419,398.1c0-0.2,0.2-0.4,0.4-0.4c0.2,0,0.4,0.2,0.4,0.4
			c0,0.2-0.2,0.4-0.4,0.4C-418.9,398.4-419,398.3-419,398.1"/>
		<path clip-path="url(#SVGID_2_)" fill="#CBCED4" d="M-419,398.1c0-0.2,0.2-0.3,0.3-0.3c0.2,0,0.3,0.2,0.3,0.3
			c0,0.2-0.2,0.3-0.3,0.3C-418.8,398.4-419,398.2-419,398.1"/>
		<path clip-path="url(#SVGID_2_)" fill="#D0D3D8" d="M-419,398.1c0-0.2,0.1-0.3,0.3-0.3c0.2,0,0.3,0.1,0.3,0.3
			c0,0.2-0.1,0.3-0.3,0.3C-418.8,398.4-419,398.2-419,398.1"/>
		<path clip-path="url(#SVGID_2_)" fill="#D2D4DA" d="M-419,398.1c0-0.2,0.1-0.3,0.3-0.3c0.2,0,0.3,0.1,0.3,0.3
			c0,0.2-0.1,0.3-0.3,0.3C-418.8,398.4-419,398.2-419,398.1"/>
		<path clip-path="url(#SVGID_2_)" fill="#D5D8DD" d="M-418.9,398.1c0-0.2,0.1-0.3,0.3-0.3c0.2,0,0.3,0.1,0.3,0.3
			c0,0.2-0.1,0.3-0.3,0.3C-418.8,398.3-418.9,398.2-418.9,398.1"/>
		<path clip-path="url(#SVGID_2_)" fill="#D5D8DD" d="M-418.9,398.1c0-0.1,0.1-0.3,0.3-0.3c0.2,0,0.3,0.1,0.3,0.3
			c0,0.1-0.1,0.3-0.3,0.3C-418.8,398.3-418.9,398.2-418.9,398.1"/>
		<path clip-path="url(#SVGID_2_)" fill="#D7DADF" d="M-418.9,398.1c0-0.1,0.1-0.3,0.3-0.3c0.1,0,0.3,0.1,0.3,0.3
			c0,0.1-0.1,0.3-0.3,0.3C-418.8,398.3-418.9,398.2-418.9,398.1"/>
		<path clip-path="url(#SVGID_2_)" fill="#DBDDE1" d="M-418.9,398.1c0-0.1,0.1-0.2,0.2-0.2c0.1,0,0.2,0.1,0.2,0.2
			c0,0.1-0.1,0.2-0.2,0.2C-418.8,398.3-418.9,398.2-418.9,398.1"/>
		<path clip-path="url(#SVGID_2_)" fill="#DDDEE2" d="M-418.9,398.1c0-0.1,0.1-0.2,0.2-0.2c0.1,0,0.2,0.1,0.2,0.2
			c0,0.1-0.1,0.2-0.2,0.2C-418.8,398.3-418.9,398.2-418.9,398.1"/>
		<path clip-path="url(#SVGID_2_)" fill="#DFE1E5" d="M-418.8,398.1c0-0.1,0.1-0.2,0.2-0.2c0.1,0,0.2,0.1,0.2,0.2
			c0,0.1-0.1,0.2-0.2,0.2C-418.8,398.2-418.8,398.2-418.8,398.1"/>
		<path clip-path="url(#SVGID_2_)" fill="#DFE1E5" d="M-418.8,398.1c0-0.1,0.1-0.2,0.2-0.2c0.1,0,0.2,0.1,0.2,0.2
			c0,0.1-0.1,0.2-0.2,0.2C-418.7,398.2-418.8,398.1-418.8,398.1"/>
		<path clip-path="url(#SVGID_2_)" fill="#E1E3E7" d="M-418.8,398.1c0-0.1,0.1-0.2,0.2-0.2c0.1,0,0.2,0.1,0.2,0.2
			c0,0.1-0.1,0.2-0.2,0.2C-418.7,398.2-418.8,398.1-418.8,398.1"/>
		<path clip-path="url(#SVGID_2_)" fill="#E4E5E8" d="M-418.8,398.1c0-0.1,0.1-0.1,0.1-0.1c0.1,0,0.1,0.1,0.1,0.1
			c0,0.1-0.1,0.1-0.1,0.1C-418.7,398.2-418.8,398.1-418.8,398.1"/>
		<path clip-path="url(#SVGID_2_)" fill="#E6E7EA" d="M-418.8,398.1c0-0.1,0.1-0.1,0.1-0.1c0.1,0,0.1,0.1,0.1,0.1
			c0,0.1-0.1,0.1-0.1,0.1C-418.7,398.2-418.8,398.1-418.8,398.1"/>
		<path clip-path="url(#SVGID_2_)" fill="#E6E7EA" d="M-418.8,398.1c0-0.1,0-0.1,0.1-0.1c0.1,0,0.1,0,0.1,0.1c0,0.1,0,0.1-0.1,0.1
			C-418.7,398.2-418.8,398.1-418.8,398.1"/>
		<path clip-path="url(#SVGID_2_)" fill="#E6E7EA" d="M-418.7,398.1C-418.7,398-418.7,398-418.7,398.1c0.1-0.1,0.2,0,0.2,0
			C-418.6,398.1-418.6,398.1-418.7,398.1C-418.7,398.1-418.7,398.1-418.7,398.1"/>
		<path clip-path="url(#SVGID_2_)" fill="#E8EAEC" d="M-418.7,398.1C-418.7,398-418.7,398-418.7,398.1c0.1-0.1,0.1,0,0.1,0
			C-418.6,398.1-418.6,398.1-418.7,398.1C-418.7,398.1-418.7,398.1-418.7,398.1"/>
	</g>
	<path fill="#E8EAEC" d="M-418.7,398.1C-418.7,398-418.7,398-418.7,398.1c0.1-0.1,0.1,0,0.1,0C-418.6,398.1-418.6,398.1-418.7,398.1
		C-418.7,398.1-418.7,398.1-418.7,398.1"/>
	<path fill="#E8EAEC" d="M-418.7,398.1C-418.7,398-418.7,398-418.7,398.1C-418.6,398-418.6,398-418.7,398.1
		C-418.6,398.1-418.6,398.1-418.7,398.1C-418.7,398.1-418.7,398.1-418.7,398.1"/>
	<path fill="#231F20" d="M-411.2,401.6h-0.8l-0.2,0.4h0.8c0.1,0,0.3-0.1,0.3-0.2C-410.9,401.6-411,401.6-411.2,401.6z M-411.1,401.7
		c0,0.1-0.1,0.1-0.2,0.1c0,0-0.4,0-0.6,0c0-0.1,0.1-0.2,0.1-0.2C-411.7,401.7-411.2,401.7-411.1,401.7
		C-411.1,401.7-411.1,401.7-411.1,401.7C-411.1,401.7-411.1,401.7-411.1,401.7C-411.1,401.7-411.1,401.7-411.1,401.7
		C-411.1,401.7-411.1,401.7-411.1,401.7"/>
	<path fill="#231F20" d="M-413.6,401.6h-0.8l-0.2,0.4h0.8c0.1,0,0.3-0.1,0.3-0.2C-413.4,401.6-413.4,401.6-413.6,401.6z
		 M-413.5,401.7c0,0.1-0.1,0.1-0.2,0.1c0,0-0.4,0-0.6,0c0-0.1,0.1-0.2,0.1-0.2C-414.2,401.7-413.6,401.7-413.5,401.7
		C-413.5,401.7-413.5,401.7-413.5,401.7C-413.5,401.7-413.5,401.7-413.5,401.7C-413.5,401.7-413.5,401.7-413.5,401.7
		C-413.5,401.7-413.5,401.7-413.5,401.7"/>
	<path fill="#231F20" d="M-416.2,402.3h-0.8l-0.2,0.4h0.8c0.2,0,0.3-0.1,0.4-0.2C-416,402.4-416.1,402.3-416.2,402.3z M-416.1,402.5
		c-0.1,0.1-0.2,0.1-0.3,0.1c0,0-0.5,0-0.7,0c0-0.1,0.1-0.2,0.1-0.2c0.1,0,0.7,0,0.7,0C-416.2,402.4-416.1,402.4-416.1,402.5
		C-416.1,402.4-416.1,402.4-416.1,402.5C-416.1,402.4-416.1,402.4-416.1,402.5"/>
	<path fill="#231F20" d="M-416,401.6h-0.8l-0.2,0.4h0.8c0.1,0,0.2-0.1,0.3-0.2C-415.8,401.7-415.9,401.6-416,401.6z M-415.9,401.7
		c0,0.1-0.1,0.1-0.2,0.1c0,0-0.5,0-0.7,0c0-0.1,0.1-0.2,0.1-0.2C-416.6,401.7-416,401.7-415.9,401.7
		C-415.9,401.7-415.9,401.7-415.9,401.7C-415.9,401.7-415.9,401.7-415.9,401.7C-415.9,401.7-415.9,401.7-415.9,401.7"/>
	<path fill="#231F20" d="M-415.3,401.8c0-0.1,0-0.1,0-0.2c0-0.1,0-0.1,0-0.2c-0.1-0.2-0.3-0.3-0.5-0.3h-1.3c0,0-0.1,0-0.1,0.1
		l-0.8,1.9c0,0,0,0,0,0.1c0,0,0.1,0,0.1,0h1.3c0.5,0,0.9-0.2,1-0.6c0-0.1,0-0.1,0-0.2c0-0.1,0-0.2-0.1-0.3
		C-415.4,402-415.3,401.9-415.3,401.8z M-415.7,402.1c0.1,0.1,0.2,0.2,0.1,0.4c-0.1,0.3-0.5,0.6-0.9,0.6h-1.3c0,0,0,0,0,0
		c0,0,0,0,0,0l0.7-1.9c0,0,0,0,0,0h1.3c0.2,0,0.4,0.1,0.4,0.2c0,0.1,0,0.2,0,0.3C-415.4,401.9-415.5,402-415.7,402.1"/>
	<path fill="#231F20" d="M-410.4,401.3c-0.1-0.1-0.2-0.2-0.5-0.2h-1.3c0,0-0.1,0-0.1,0.1c0,0-0.6,1.5-0.8,1.9c0,0.1,0,0.1,0.1,0.1
		h0.5c0,0,0.1,0,0.1-0.1c0.1-0.2,0.2-0.6,0.3-0.7c0.1,0,0.7,0,0.7,0c0.5,0,0.9-0.2,1-0.6c0-0.1,0.1-0.2,0.1-0.3
		C-410.4,401.4-410.4,401.4-410.4,401.3z M-410.5,401.8c-0.2,0.4-0.5,0.6-0.9,0.6h-0.8l-0.3,0.7h0c0,0,0,0,0,0v0h-0.4c0,0,0,0,0,0
		c0,0,0,0,0,0l0.7-1.9c0,0,0,0,0,0h1.3C-410.5,401.2-410.4,401.4-410.5,401.8"/>
	<path fill="#231F20" d="M-412.9,401.3c-0.1-0.1-0.2-0.2-0.5-0.2h-1.3c0,0-0.1,0-0.1,0.1c0,0-0.6,1.5-0.8,1.9c0,0.1,0,0.1,0.1,0.1
		h0.5c0,0,0.1,0,0.1-0.1c0.1-0.2,0.2-0.6,0.3-0.7h0.3c0,0.1,0.2,0.5,0.2,0.7c0,0,0,0.1,0.1,0.1h0.5c0.1,0,0.1-0.1,0.1-0.1
		c-0.1-0.2-0.2-0.5-0.2-0.7c0.1,0,0.3-0.1,0.4-0.2c0.1-0.1,0.2-0.2,0.3-0.4c0-0.1,0.1-0.2,0.1-0.3
		C-412.8,401.5-412.8,401.4-412.9,401.3z M-412.9,401.8c-0.1,0.3-0.3,0.5-0.7,0.5l0.3,0.7l0,0c0,0,0,0,0,0c0,0,0,0,0,0h-0.5
		c0,0,0,0,0,0h0l-0.2-0.7h-0.5l-0.3,0.7c0,0,0,0,0,0h-0.4c0,0,0,0,0,0c0,0,0,0,0,0l0.7-1.9c0,0,0,0,0,0h1.2
		C-412.9,401.2-412.8,401.5-412.9,401.8"/>
	<path fill="#FFFFFF" d="M-415.4,401.4c-0.1-0.1-0.2-0.2-0.4-0.2h-1.3c0,0,0,0,0,0l-0.7,1.9c0,0,0,0,0,0c0,0,0,0,0,0h1.3
		c0.4,0,0.8-0.2,0.9-0.6c0.1-0.2,0-0.3-0.1-0.4c0.2-0.1,0.3-0.2,0.3-0.4C-415.3,401.6-415.3,401.5-415.4,401.4z M-416.1,402.5
		c-0.1,0.1-0.2,0.2-0.4,0.2h-0.8l0.2-0.4h0.8C-416.1,402.3-416,402.4-416.1,402.5z M-415.9,401.8c0,0.1-0.2,0.2-0.3,0.2h-0.8
		l0.2-0.4h0.8C-415.9,401.6-415.8,401.7-415.9,401.8"/>
	<path fill-rule="evenodd" clip-rule="evenodd" fill="#FFFFFF" d="M-411,401.2h-1.3c0,0,0,0,0,0l-0.7,1.9c0,0,0,0,0,0c0,0,0,0,0,0
		h0.4v0c0,0,0,0,0,0h0l0.3-0.7h0.8c0.5,0,0.8-0.2,0.9-0.6C-410.4,401.4-410.5,401.2-411,401.2z M-411,401.8c0,0.1-0.2,0.2-0.3,0.2
		h-0.8l0.2-0.4h0.8C-411,401.6-410.9,401.6-411,401.8"/>
	<path fill-rule="evenodd" clip-rule="evenodd" fill="#FFFFFF" d="M-413.4,401.2h-1.2c0,0,0,0,0,0l-0.7,1.9c0,0,0,0,0,0c0,0,0,0,0,0
		h0.4c0,0,0,0,0,0l0.3-0.7h0.5l0.2,0.7h0c0,0,0,0,0,0h0.5c0,0,0,0,0,0c0,0,0,0,0,0l0,0l-0.3-0.7c0.4-0.1,0.6-0.2,0.7-0.5
		C-412.8,401.5-412.9,401.2-413.4,401.2z M-413.4,401.8c0,0.1-0.2,0.2-0.3,0.2h-0.8l0.2-0.4h0.8
		C-413.4,401.6-413.4,401.6-413.4,401.8"/>
	<g>
		<defs>
			<path id="SVGID_3_" d="M-410.5,399.5c-0.8,0.1-1.7,0.1-1.8-0.3c-0.1-0.4,0.5-0.9,1.3-1.3c0,0,0,0,0,0c-0.3-0.7-0.8-1.3-1.3-1.8
				c-0.6,0.6-1.3,1-1.6,0.8c-0.3-0.2-0.1-1,0.3-1.8c-0.6-0.3-1.4-0.6-2.1-0.7c-0.2,0.8-0.4,1.6-0.8,1.6c-0.4,0-0.7-0.8-0.8-1.6l0,0
				c-0.8,0.1-1.5,0.4-2.2,0.7c0,0,0,0,0,0c0.4,0.8,0.6,1.6,0.3,1.8c-0.3,0.2-1-0.2-1.6-0.8c-0.5,0.5-1,1.2-1.3,1.9c0,0,0,0,0,0
				c0.8,0.4,1.4,0.9,1.3,1.2c-0.1,0.4-0.9,0.4-1.8,0.4c0,0.3-0.1,0.6-0.1,0.9c0,2.3,1.3,4.3,3.2,5.4l0.9-2.1
				c-1.1-0.7-1.8-1.9-1.8-3.3c0-2.2,1.8-4,4-4c2.1,0,3.8,1.6,4,3.7h2.2C-410.4,400.1-410.4,399.8-410.5,399.5"/>
		</defs>
		<clipPath id="SVGID_4_">
			<use xlink:href="#SVGID_3_"  overflow="visible"/>
		</clipPath>
		<polyline clip-path="url(#SVGID_4_)" fill="#4F5252" points="-423.7,395.6 -411.4,393.5 -409.7,404.4 -421.9,406.4 -423.7,395.6 
					"/>
		<path clip-path="url(#SVGID_4_)" fill="#515555" d="M-424.4,400.9c-0.6-3.8,2.1-7.4,6.1-8c4-0.7,7.8,1.9,8.4,5.6
			c0.6,3.8-2.1,7.4-6.1,8C-420,407.2-423.8,404.7-424.4,400.9"/>
		<path clip-path="url(#SVGID_4_)" fill="#545758" d="M-424.3,400.9c-0.6-3.7,2.1-7.3,6.1-8c4-0.7,7.7,1.8,8.3,5.6
			c0.6,3.7-2.1,7.3-6.1,8C-420,407.2-423.7,404.6-424.3,400.9"/>
		<path clip-path="url(#SVGID_4_)" fill="#56595A" d="M-424.3,400.9c-0.6-3.7,2.1-7.3,6-7.9c4-0.7,7.7,1.8,8.3,5.6
			c0.6,3.7-2.1,7.3-6.1,7.9C-420,407.1-423.7,404.6-424.3,400.9"/>
		<path clip-path="url(#SVGID_4_)" fill="#595D5D" d="M-424.2,400.9c-0.6-3.7,2.1-7.2,6-7.9c3.9-0.6,7.6,1.8,8.2,5.5
			c0.6,3.7-2.1,7.2-6,7.9C-420,407-423.6,404.6-424.2,400.9"/>
		<path clip-path="url(#SVGID_4_)" fill="#5C6061" d="M-424.2,400.9c-0.6-3.7,2.1-7.2,6-7.8c3.9-0.6,7.6,1.8,8.2,5.5
			c0.6,3.7-2.1,7.2-6,7.8C-419.9,407-423.6,404.5-424.2,400.9"/>
		<path clip-path="url(#SVGID_4_)" fill="#5F6264" d="M-424.1,400.9c-0.6-3.6,2.1-7.1,5.9-7.8c3.9-0.6,7.5,1.8,8.1,5.4
			c0.6,3.6-2.1,7.1-5.9,7.8C-419.9,406.9-423.5,404.5-424.1,400.9"/>
		<path clip-path="url(#SVGID_4_)" fill="#606466" d="M-424.1,400.9c-0.6-3.6,2-7.1,5.9-7.7c3.8-0.6,7.4,1.8,8,5.4
			c0.6,3.6-2,7.1-5.9,7.7C-419.9,406.9-423.5,404.5-424.1,400.9"/>
		<path clip-path="url(#SVGID_4_)" fill="#626769" d="M-424,400.8c-0.6-3.6,2-7,5.8-7.6c3.8-0.6,7.4,1.8,8,5.4c0.6,3.6-2,7-5.8,7.6
			C-419.9,406.8-423.4,404.4-424,400.8"/>
		<path clip-path="url(#SVGID_4_)" fill="#656A6D" d="M-424,400.8c-0.6-3.6,2-7,5.8-7.6c3.8-0.6,7.3,1.8,7.9,5.3
			c0.6,3.6-2,7-5.8,7.6C-419.9,406.8-423.4,404.4-424,400.8"/>
		<path clip-path="url(#SVGID_4_)" fill="#676C6F" d="M-423.9,400.8c-0.6-3.5,2-6.9,5.8-7.5c3.8-0.6,7.3,1.7,7.9,5.3
			c0.6,3.5-2,6.9-5.8,7.5C-419.8,406.7-423.4,404.4-423.9,400.8"/>
		<path clip-path="url(#SVGID_4_)" fill="#6A7073" d="M-423.9,400.8c-0.6-3.5,2-6.9,5.7-7.5c3.7-0.6,7.2,1.7,7.8,5.2
			c0.6,3.5-2,6.9-5.7,7.5C-419.8,406.7-423.3,404.3-423.9,400.8"/>
		<path clip-path="url(#SVGID_4_)" fill="#6C7175" d="M-423.8,400.8c-0.6-3.5,2-6.8,5.7-7.4c3.7-0.6,7.2,1.7,7.8,5.2
			c0.6,3.5-2,6.8-5.7,7.4C-419.8,406.6-423.3,404.3-423.8,400.8"/>
		<path clip-path="url(#SVGID_4_)" fill="#6F7478" d="M-423.8,400.8c-0.6-3.5,1.9-6.8,5.6-7.4c3.7-0.6,7.1,1.7,7.7,5.2
			c0.6,3.5-1.9,6.8-5.6,7.4C-419.8,406.6-423.2,404.3-423.8,400.8"/>
		<path clip-path="url(#SVGID_4_)" fill="#71767A" d="M-423.7,400.8c-0.6-3.4,1.9-6.7,5.6-7.3c3.7-0.6,7.1,1.7,7.6,5.1
			c0.6,3.4-1.9,6.7-5.6,7.3C-419.8,406.5-423.2,404.2-423.7,400.8"/>
		<path clip-path="url(#SVGID_4_)" fill="#74797D" d="M-423.7,400.8c-0.6-3.4,1.9-6.7,5.5-7.3c3.6-0.6,7,1.7,7.6,5.1
			c0.6,3.4-1.9,6.7-5.5,7.3C-419.7,406.5-423.1,404.2-423.7,400.8"/>
		<path clip-path="url(#SVGID_4_)" fill="#757C7F" d="M-423.6,400.8c-0.6-3.4,1.9-6.6,5.5-7.2c3.6-0.6,7,1.7,7.5,5.1
			c0.6,3.4-1.9,6.6-5.5,7.2C-419.7,406.4-423.1,404.2-423.6,400.8"/>
		<path clip-path="url(#SVGID_4_)" fill="#787E81" d="M-423.6,400.8c-0.6-3.4,1.9-6.6,5.5-7.1c3.6-0.6,6.9,1.7,7.5,5
			c0.6,3.4-1.9,6.6-5.5,7.1C-419.7,406.4-423,404.1-423.6,400.8"/>
		<path clip-path="url(#SVGID_4_)" fill="#7B8084" d="M-423.5,400.8c-0.5-3.3,1.9-6.5,5.4-7.1c3.5-0.6,6.9,1.6,7.4,5
			c0.5,3.3-1.9,6.5-5.4,7.1C-419.7,406.3-423,404.1-423.5,400.8"/>
		<path clip-path="url(#SVGID_4_)" fill="#7C8186" d="M-423.5,400.8c-0.5-3.3,1.9-6.5,5.4-7c3.5-0.6,6.8,1.6,7.3,4.9
			c0.5,3.3-1.9,6.5-5.4,7C-419.7,406.3-422.9,404.1-423.5,400.8"/>
		<path clip-path="url(#SVGID_4_)" fill="#808589" d="M-423.4,400.7c-0.5-3.3,1.8-6.4,5.3-7c3.5-0.6,6.7,1.6,7.3,4.9
			c0.5,3.3-1.8,6.4-5.3,7C-419.6,406.2-422.9,404-423.4,400.7"/>
		<path clip-path="url(#SVGID_4_)" fill="#82888C" d="M-423.4,400.7c-0.5-3.3,1.8-6.4,5.3-6.9c3.5-0.6,6.7,1.6,7.2,4.9
			c0.5,3.3-1.8,6.4-5.3,6.9C-419.6,406.2-422.9,404-423.4,400.7"/>
		<path clip-path="url(#SVGID_4_)" fill="#84898E" d="M-423.3,400.7c-0.5-3.2,1.8-6.3,5.2-6.9c3.4-0.6,6.6,1.6,7.2,4.8
			c0.5,3.2-1.8,6.3-5.2,6.9C-419.6,406.1-422.8,404-423.3,400.7"/>
		<path clip-path="url(#SVGID_4_)" fill="#888D92" d="M-423.3,400.7c-0.5-3.2,1.8-6.3,5.2-6.8c3.4-0.6,6.6,1.6,7.1,4.8
			c0.5,3.2-1.8,6.3-5.2,6.8C-419.6,406.1-422.8,403.9-423.3,400.7"/>
		<path clip-path="url(#SVGID_4_)" fill="#898F95" d="M-423.2,400.7c-0.5-3.2,1.8-6.2,5.2-6.8c3.4-0.6,6.5,1.6,7.1,4.7
			s-1.8,6.2-5.2,6.8C-419.6,406-422.7,403.9-423.2,400.7"/>
		<path clip-path="url(#SVGID_4_)" fill="#8D9298" d="M-423.2,400.7c-0.5-3.1,1.8-6.2,5.1-6.7c3.3-0.6,6.5,1.6,7,4.7
			c0.5,3.1-1.8,6.2-5.1,6.7C-419.5,406-422.7,403.9-423.2,400.7"/>
		<path clip-path="url(#SVGID_4_)" fill="#8E939A" d="M-423.1,400.7c-0.5-3.1,1.8-6.1,5.1-6.6c3.3-0.5,6.4,1.5,6.9,4.7
			c0.5,3.1-1.8,6.1-5.1,6.6C-419.5,405.9-422.6,403.8-423.1,400.7"/>
		<path clip-path="url(#SVGID_4_)" fill="#91979E" d="M-423.1,400.7c-0.5-3.1,1.7-6,5-6.6c3.3-0.5,6.4,1.5,6.9,4.6
			c0.5,3.1-1.7,6-5,6.6C-419.5,405.9-422.6,403.8-423.1,400.7"/>
		<path clip-path="url(#SVGID_4_)" fill="#959AA1" d="M-423,400.7c-0.5-3.1,1.7-6,5-6.5c3.3-0.5,6.3,1.5,6.8,4.6
			c0.5,3.1-1.7,6-5,6.5C-419.5,405.8-422.5,403.8-423,400.7"/>
		<path clip-path="url(#SVGID_4_)" fill="#989DA3" d="M-423,400.7c-0.5-3,1.7-5.9,4.9-6.5c3.2-0.5,6.3,1.5,6.8,4.5
			c0.5,3-1.7,5.9-4.9,6.5C-419.5,405.8-422.5,403.7-423,400.7"/>
		<path clip-path="url(#SVGID_4_)" fill="#9AA0A7" d="M-422.9,400.7c-0.5-3,1.7-5.9,4.9-6.4c3.2-0.5,6.2,1.5,6.7,4.5
			c0.5,3-1.7,5.9-4.9,6.4C-419.4,405.7-422.4,403.7-422.9,400.7"/>
		<path clip-path="url(#SVGID_4_)" fill="#9FA3AA" d="M-422.9,400.7c-0.5-3,1.7-5.8,4.9-6.4c3.2-0.5,6.2,1.5,6.6,4.5
			c0.5,3-1.7,5.8-4.9,6.4C-419.4,405.7-422.4,403.7-422.9,400.7"/>
		<path clip-path="url(#SVGID_4_)" fill="#A1A6AD" d="M-422.8,400.6c-0.5-3,1.7-5.8,4.8-6.3c3.2-0.5,6.1,1.5,6.6,4.4
			c0.5,3-1.7,5.8-4.8,6.3C-419.4,405.6-422.3,403.6-422.8,400.6"/>
		<path clip-path="url(#SVGID_4_)" fill="#A5A9B0" d="M-422.8,400.6c-0.5-2.9,1.7-5.7,4.8-6.3c3.1-0.5,6,1.4,6.5,4.4
			c0.5,2.9-1.7,5.7-4.8,6.3C-419.4,405.5-422.3,403.6-422.8,400.6"/>
		<path clip-path="url(#SVGID_4_)" fill="#A7ABB2" d="M-422.7,400.6c-0.5-2.9,1.6-5.7,4.7-6.2c3.1-0.5,6,1.4,6.5,4.4
			c0.5,2.9-1.6,5.7-4.7,6.2C-419.4,405.5-422.3,403.5-422.7,400.6"/>
		<path clip-path="url(#SVGID_4_)" fill="#ABAFB6" d="M-422.7,400.6c-0.5-2.9,1.6-5.6,4.7-6.1c3.1-0.5,5.9,1.4,6.4,4.3
			c0.5,2.9-1.6,5.6-4.7,6.1C-419.3,405.4-422.2,403.5-422.7,400.6"/>
		<path clip-path="url(#SVGID_4_)" fill="#B0B4BB" d="M-422.6,400.6c-0.5-2.9,1.6-5.6,4.7-6.1c3-0.5,5.9,1.4,6.4,4.3
			c0.5,2.9-1.6,5.6-4.7,6.1C-419.3,405.4-422.2,403.5-422.6,400.6"/>
		<path clip-path="url(#SVGID_4_)" fill="#B4B7BE" d="M-422.6,400.6c-0.5-2.8,1.6-5.5,4.6-6c3-0.5,5.8,1.4,6.3,4.2
			c0.5,2.8-1.6,5.5-4.6,6C-419.3,405.3-422.1,403.4-422.6,400.6"/>
		<path clip-path="url(#SVGID_4_)" fill="#B7BBC2" d="M-422.5,400.6c-0.5-2.8,1.6-5.5,4.6-6c3-0.5,5.8,1.4,6.2,4.2
			c0.5,2.8-1.6,5.5-4.6,6C-419.3,405.3-422.1,403.4-422.5,400.6"/>
		<path clip-path="url(#SVGID_4_)" fill="#BCC1C8" d="M-422.5,400.6c-0.5-2.8,1.6-5.4,4.5-5.9c3-0.5,5.7,1.4,6.2,4.2
			c0.5,2.8-1.6,5.4-4.5,5.9C-419.3,405.2-422,403.4-422.5,400.6"/>
		<path clip-path="url(#SVGID_4_)" fill="#C0C3C9" d="M-422.4,400.6c-0.5-2.8,1.6-5.4,4.5-5.9c2.9-0.5,5.7,1.4,6.1,4.1
			c0.5,2.8-1.6,5.4-4.5,5.9C-419.2,405.2-422,403.3-422.4,400.6"/>
		<path clip-path="url(#SVGID_4_)" fill="#C4C8CE" d="M-422.4,400.6c-0.5-2.7,1.5-5.3,4.4-5.8c2.9-0.5,5.6,1.3,6.1,4.1
			c0.5,2.7-1.5,5.3-4.4,5.8C-419.2,405.1-421.9,403.3-422.4,400.6"/>
		<path clip-path="url(#SVGID_4_)" fill="#C9CDD3" d="M-422.3,400.6c-0.4-2.7,1.5-5.3,4.4-5.8c2.9-0.5,5.6,1.3,6,4
			c0.4,2.7-1.5,5.3-4.4,5.8C-419.2,405.1-421.9,403.3-422.3,400.6"/>
		<path clip-path="url(#SVGID_4_)" fill="#D0D3D8" d="M-422.3,400.6c-0.4-2.7,1.5-5.2,4.4-5.7c2.8-0.5,5.5,1.3,6,4
			c0.4,2.7-1.5,5.2-4.4,5.7C-419.2,405-421.8,403.2-422.3,400.6"/>
		<path clip-path="url(#SVGID_4_)" fill="#D5D8DD" d="M-422.2,400.5c-0.4-2.7,1.5-5.2,4.3-5.6c2.8-0.5,5.5,1.3,5.9,4
			c0.4,2.7-1.5,5.2-4.3,5.6C-419.2,405-421.8,403.2-422.2,400.5"/>
		<path clip-path="url(#SVGID_4_)" fill="#DDDEE2" d="M-422.2,400.5c-0.4-2.6,1.5-5.1,4.3-5.6c2.8-0.5,5.4,1.3,5.8,3.9
			c0.4,2.6-1.5,5.1-4.3,5.6C-419.1,404.9-421.7,403.2-422.2,400.5"/>
		<path clip-path="url(#SVGID_4_)" fill="#E1E3E7" d="M-422.1,400.5c-0.4-2.6,1.5-5.1,4.2-5.5c2.8-0.5,5.4,1.3,5.8,3.9
			c0.4,2.6-1.5,5.1-4.2,5.5C-419.1,404.9-421.7,403.1-422.1,400.5"/>
		<path clip-path="url(#SVGID_4_)" fill="#E8EAEC" d="M-422.1,400.5c-0.4-2.6,1.4-5,4.2-5.5c2.7-0.5,5.3,1.3,5.7,3.8
			c0.4,2.6-1.4,5-4.2,5.5C-419.1,404.8-421.7,403.1-422.1,400.5"/>
		<path clip-path="url(#SVGID_4_)" fill="#EFEFF1" d="M-422,400.5c-0.4-2.5,1.4-5,4.1-5.4c2.7-0.4,5.2,1.3,5.7,3.8
			c0.4,2.5-1.4,5-4.1,5.4C-419.1,404.8-421.6,403.1-422,400.5"/>
		<path clip-path="url(#SVGID_4_)" fill="#F5F5F6" d="M-422,400.5c-0.4-2.5,1.4-4.9,4.1-5.4c2.7-0.4,5.2,1.2,5.6,3.8
			c0.4,2.5-1.4,4.9-4.1,5.4C-419.1,404.7-421.6,403-422,400.5"/>
		<path clip-path="url(#SVGID_4_)" fill="#FFFFFF" d="M-421.9,400.5c-0.4-2.5,1.4-4.9,4.1-5.3c2.7-0.4,5.1,1.2,5.5,3.7
			c0.4,2.5-1.4,4.9-4.1,5.3C-419,404.7-421.5,403-421.9,400.5"/>
	</g>
	<g>
		<defs>
			<path id="SVGID_5_" d="M-416.6,396.1c0.4,0,0.7-0.8,0.8-1.6c-0.6,1.6-1,1.6-1.7,0c0,0,0,0,0,0l0,0
				C-417.2,395.4-416.9,396.1-416.6,396.1"/>
		</defs>
		<clipPath id="SVGID_6_">
			<use xlink:href="#SVGID_5_"  overflow="visible"/>
		</clipPath>
		<rect x="-417.4" y="394.5" clip-path="url(#SVGID_6_)" fill="#4F5252" width="1.7" height="1.6"/>
		<path clip-path="url(#SVGID_6_)" fill="#515555" d="M-422.7,400.5c0-3.4,2.7-6.1,6.1-6.1c3.4,0,6.1,2.7,6.1,6.1
			c0,3.4-2.7,6.1-6.1,6.1C-419.9,406.6-422.7,403.9-422.7,400.5"/>
		<path clip-path="url(#SVGID_6_)" fill="#535757" d="M-422.6,400.5c0-3.3,2.7-6.1,6.1-6.1c3.4,0,6.1,2.7,6.1,6.1
			c0,3.3-2.7,6.1-6.1,6.1C-419.9,406.6-422.6,403.9-422.6,400.5"/>
		<path clip-path="url(#SVGID_6_)" fill="#56595A" d="M-422.6,400.5c0-3.3,2.7-6,6.1-6c3.3,0,6.1,2.7,6.1,6c0,3.3-2.7,6-6.1,6
			C-419.9,406.6-422.6,403.9-422.6,400.5"/>
		<path clip-path="url(#SVGID_6_)" fill="#595D5D" d="M-422.6,400.5c0-3.3,2.7-6,6-6c3.3,0,6,2.7,6,6c0,3.3-2.7,6-6,6
			C-419.9,406.5-422.6,403.9-422.6,400.5"/>
		<path clip-path="url(#SVGID_6_)" fill="#5B5F60" d="M-422.6,400.5c0-3.3,2.7-6,6-6c3.3,0,6,2.7,6,6c0,3.3-2.7,6-6,6
			C-419.9,406.5-422.6,403.8-422.6,400.5"/>
		<path clip-path="url(#SVGID_6_)" fill="#5C6162" d="M-422.5,400.5c0-3.3,2.7-6,6-6c3.3,0,6,2.7,6,6c0,3.3-2.7,6-6,6
			C-419.9,406.5-422.5,403.8-422.5,400.5"/>
		<path clip-path="url(#SVGID_6_)" fill="#5F6465" d="M-422.5,400.5c0-3.3,2.7-5.9,6-5.9c3.3,0,6,2.7,6,5.9c0,3.3-2.7,5.9-6,5.9
			C-419.8,406.5-422.5,403.8-422.5,400.5"/>
		<path clip-path="url(#SVGID_6_)" fill="#626668" d="M-422.5,400.5c0-3.3,2.7-5.9,5.9-5.9c3.3,0,5.9,2.6,5.9,5.9
			c0,3.3-2.7,5.9-5.9,5.9C-419.8,406.5-422.5,403.8-422.5,400.5"/>
		<path clip-path="url(#SVGID_6_)" fill="#64696B" d="M-422.5,400.5c0-3.3,2.6-5.9,5.9-5.9c3.3,0,5.9,2.6,5.9,5.9s-2.6,5.9-5.9,5.9
			C-419.8,406.4-422.5,403.8-422.5,400.5"/>
		<path clip-path="url(#SVGID_6_)" fill="#656A6D" d="M-422.4,400.5c0-3.2,2.6-5.9,5.9-5.9c3.3,0,5.9,2.6,5.9,5.9
			c0,3.2-2.6,5.9-5.9,5.9C-419.8,406.4-422.4,403.8-422.4,400.5"/>
		<path clip-path="url(#SVGID_6_)" fill="#676C6F" d="M-422.4,400.5c0-3.2,2.6-5.8,5.9-5.8c3.2,0,5.9,2.6,5.9,5.8
			c0,3.2-2.6,5.8-5.9,5.8C-419.8,406.4-422.4,403.8-422.4,400.5"/>
		<path clip-path="url(#SVGID_6_)" fill="#6A7073" d="M-422.4,400.5c0-3.2,2.6-5.8,5.8-5.8c3.2,0,5.8,2.6,5.8,5.8
			c0,3.2-2.6,5.8-5.8,5.8C-419.8,406.4-422.4,403.8-422.4,400.5"/>
		<path clip-path="url(#SVGID_6_)" fill="#6C7175" d="M-422.4,400.5c0-3.2,2.6-5.8,5.8-5.8c3.2,0,5.8,2.6,5.8,5.8
			c0,3.2-2.6,5.8-5.8,5.8C-419.8,406.3-422.4,403.7-422.4,400.5"/>
		<path clip-path="url(#SVGID_6_)" fill="#6D7376" d="M-422.4,400.5c0-3.2,2.6-5.8,5.8-5.8c3.2,0,5.8,2.6,5.8,5.8
			c0,3.2-2.6,5.8-5.8,5.8C-419.8,406.3-422.4,403.7-422.4,400.5"/>
		<path clip-path="url(#SVGID_6_)" fill="#707679" d="M-422.3,400.5c0-3.2,2.6-5.7,5.8-5.7c3.2,0,5.8,2.6,5.8,5.7
			c0,3.2-2.6,5.7-5.8,5.7C-419.7,406.3-422.3,403.7-422.3,400.5"/>
		<path clip-path="url(#SVGID_6_)" fill="#72787C" d="M-422.3,400.5c0-3.2,2.6-5.7,5.7-5.7s5.7,2.6,5.7,5.7c0,3.2-2.6,5.7-5.7,5.7
			S-422.3,403.7-422.3,400.5"/>
		<path clip-path="url(#SVGID_6_)" fill="#74797D" d="M-422.3,400.5c0-3.1,2.6-5.7,5.7-5.7c3.2,0,5.7,2.6,5.7,5.7
			c0,3.1-2.6,5.7-5.7,5.7C-419.7,406.2-422.3,403.7-422.3,400.5"/>
		<path clip-path="url(#SVGID_6_)" fill="#757C7F" d="M-422.3,400.5c0-3.1,2.6-5.7,5.7-5.7c3.1,0,5.7,2.5,5.7,5.7
			c0,3.1-2.6,5.7-5.7,5.7C-419.7,406.2-422.3,403.7-422.3,400.5"/>
		<path clip-path="url(#SVGID_6_)" fill="#787D80" d="M-422.2,400.5c0-3.1,2.5-5.7,5.7-5.7c3.1,0,5.7,2.5,5.7,5.7
			c0,3.1-2.5,5.7-5.7,5.7C-419.7,406.2-422.2,403.7-422.2,400.5"/>
		<path clip-path="url(#SVGID_6_)" fill="#797F82" d="M-422.2,400.5c0-3.1,2.5-5.6,5.7-5.6c3.1,0,5.7,2.5,5.7,5.6
			c0,3.1-2.5,5.6-5.7,5.6C-419.7,406.2-422.2,403.6-422.2,400.5"/>
		<path clip-path="url(#SVGID_6_)" fill="#7A8083" d="M-422.2,400.5c0-3.1,2.5-5.6,5.6-5.6c3.1,0,5.6,2.5,5.6,5.6
			c0,3.1-2.5,5.6-5.6,5.6C-419.7,406.1-422.2,403.6-422.2,400.5"/>
		<path clip-path="url(#SVGID_6_)" fill="#7B8084" d="M-422.2,400.5c0-3.1,2.5-5.6,5.6-5.6c3.1,0,5.6,2.5,5.6,5.6
			c0,3.1-2.5,5.6-5.6,5.6C-419.7,406.1-422.2,403.6-422.2,400.5"/>
		<path clip-path="url(#SVGID_6_)" fill="#7C8084" d="M-422.1,400.5c0-3.1,2.5-5.6,5.6-5.6c3.1,0,5.6,2.5,5.6,5.6
			c0,3.1-2.5,5.6-5.6,5.6C-419.6,406.1-422.1,403.6-422.1,400.5"/>
		<path clip-path="url(#SVGID_6_)" fill="#7C8186" d="M-422.1,400.5c0-3.1,2.5-5.5,5.6-5.5c3.1,0,5.6,2.5,5.6,5.5
			c0,3.1-2.5,5.5-5.6,5.5C-419.6,406.1-422.1,403.6-422.1,400.5"/>
		<path clip-path="url(#SVGID_6_)" fill="#7C8186" d="M-422.1,400.5c0-3,2.5-5.5,5.5-5.5c3.1,0,5.5,2.5,5.5,5.5c0,3-2.5,5.5-5.5,5.5
			C-419.6,406-422.1,403.6-422.1,400.5"/>
		<path clip-path="url(#SVGID_6_)" fill="#7F8488" d="M-422,400.5c0-3,2.5-5.5,5.5-5.5c3,0,5.5,2.4,5.5,5.5c0,3-2.5,5.5-5.5,5.5
			C-419.6,406-422,403.6-422,400.5"/>
		<path clip-path="url(#SVGID_6_)" fill="#81868C" d="M-422,400.5c0-3,2.4-5.4,5.4-5.4c3,0,5.4,2.4,5.4,5.4c0,3-2.4,5.4-5.4,5.4
			C-419.6,406-422,403.5-422,400.5"/>
		<path clip-path="url(#SVGID_6_)" fill="#83898D" d="M-421.9,400.5c0-3,2.4-5.4,5.4-5.4c3,0,5.4,2.4,5.4,5.4s-2.4,5.4-5.4,5.4
			C-419.5,405.9-421.9,403.5-421.9,400.5"/>
		<path clip-path="url(#SVGID_6_)" fill="#868C91" d="M-421.9,400.5c0-2.9,2.4-5.3,5.3-5.3c2.9,0,5.3,2.4,5.3,5.3
			c0,2.9-2.4,5.3-5.3,5.3C-419.5,405.9-421.9,403.5-421.9,400.5"/>
		<path clip-path="url(#SVGID_6_)" fill="#888E93" d="M-421.8,400.5c0-2.9,2.4-5.3,5.3-5.3c2.9,0,5.3,2.4,5.3,5.3
			c0,2.9-2.4,5.3-5.3,5.3C-419.5,405.8-421.8,403.4-421.8,400.5"/>
		<path clip-path="url(#SVGID_6_)" fill="#898F95" d="M-421.8,400.5c0-2.9,2.3-5.2,5.2-5.2s5.2,2.3,5.2,5.2c0,2.9-2.3,5.2-5.2,5.2
			S-421.8,403.4-421.8,400.5"/>
		<path clip-path="url(#SVGID_6_)" fill="#8D9298" d="M-421.8,400.5c0-2.9,2.3-5.2,5.2-5.2c2.9,0,5.2,2.3,5.2,5.2
			c0,2.9-2.3,5.2-5.2,5.2C-419.4,405.7-421.8,403.4-421.8,400.5"/>
		<path clip-path="url(#SVGID_6_)" fill="#8E939A" d="M-421.7,400.5c0-2.8,2.3-5.1,5.1-5.1c2.8,0,5.1,2.3,5.1,5.1
			c0,2.8-2.3,5.1-5.1,5.1C-419.4,405.7-421.7,403.4-421.7,400.5"/>
		<path clip-path="url(#SVGID_6_)" fill="#91979E" d="M-421.7,400.5c0-2.8,2.3-5.1,5.1-5.1c2.8,0,5.1,2.3,5.1,5.1
			c0,2.8-2.3,5.1-5.1,5.1C-419.4,405.6-421.7,403.3-421.7,400.5"/>
		<path clip-path="url(#SVGID_6_)" fill="#959AA1" d="M-421.6,400.5c0-2.8,2.3-5,5-5c2.8,0,5,2.3,5,5c0,2.8-2.3,5-5,5
			C-419.3,405.6-421.6,403.3-421.6,400.5"/>
		<path clip-path="url(#SVGID_6_)" fill="#989DA3" d="M-421.6,400.5c0-2.8,2.2-5,5-5c2.8,0,5,2.2,5,5c0,2.8-2.2,5-5,5
			C-419.3,405.5-421.6,403.3-421.6,400.5"/>
		<path clip-path="url(#SVGID_6_)" fill="#9AA0A7" d="M-421.5,400.5c0-2.7,2.2-4.9,5-4.9c2.7,0,5,2.2,5,4.9s-2.2,4.9-5,4.9
			C-419.3,405.5-421.5,403.3-421.5,400.5"/>
		<path clip-path="url(#SVGID_6_)" fill="#9CA1A8" d="M-421.5,400.5c0-2.7,2.2-4.9,4.9-4.9c2.7,0,4.9,2.2,4.9,4.9
			c0,2.7-2.2,4.9-4.9,4.9C-419.3,405.4-421.5,403.2-421.5,400.5"/>
		<path clip-path="url(#SVGID_6_)" fill="#A1A5AC" d="M-421.4,400.5c0-2.7,2.2-4.8,4.9-4.8c2.7,0,4.9,2.2,4.9,4.8
			c0,2.7-2.2,4.8-4.9,4.8C-419.2,405.4-421.4,403.2-421.4,400.5"/>
		<path clip-path="url(#SVGID_6_)" fill="#A3A7AE" d="M-421.4,400.5c0-2.6,2.2-4.8,4.8-4.8c2.7,0,4.8,2.1,4.8,4.8
			c0,2.6-2.2,4.8-4.8,4.8C-419.2,405.3-421.4,403.2-421.4,400.5"/>
		<path clip-path="url(#SVGID_6_)" fill="#A5A9B0" d="M-421.3,400.5c0-2.6,2.1-4.7,4.8-4.7s4.8,2.1,4.8,4.7c0,2.6-2.1,4.7-4.8,4.7
			S-421.3,403.2-421.3,400.5"/>
		<path clip-path="url(#SVGID_6_)" fill="#A7ABB2" d="M-421.3,400.5c0-2.6,2.1-4.7,4.7-4.7c2.6,0,4.7,2.1,4.7,4.7
			c0,2.6-2.1,4.7-4.7,4.7C-419.2,405.2-421.3,403.1-421.3,400.5"/>
		<path clip-path="url(#SVGID_6_)" fill="#AAAEB5" d="M-421.2,400.5c0-2.6,2.1-4.6,4.7-4.6c2.6,0,4.7,2.1,4.7,4.6
			c0,2.6-2.1,4.6-4.7,4.6C-419.1,405.2-421.2,403.1-421.2,400.5"/>
		<path clip-path="url(#SVGID_6_)" fill="#ADB1B8" d="M-421.2,400.5c0-2.5,2.1-4.6,4.6-4.6c2.5,0,4.6,2.1,4.6,4.6
			c0,2.5-2.1,4.6-4.6,4.6C-419.1,405.1-421.2,403.1-421.2,400.5"/>
		<path clip-path="url(#SVGID_6_)" fill="#B0B4BB" d="M-421.1,400.5c0-2.5,2-4.5,4.6-4.5s4.6,2,4.6,4.5c0,2.5-2,4.5-4.6,4.5
			S-421.1,403-421.1,400.5"/>
		<path clip-path="url(#SVGID_6_)" fill="#B1B6BD" d="M-421.1,400.5c0-2.5,2-4.5,4.5-4.5c2.5,0,4.5,2,4.5,4.5c0,2.5-2,4.5-4.5,4.5
			C-419.1,405-421.1,403-421.1,400.5"/>
		<path clip-path="url(#SVGID_6_)" fill="#B4B7BE" d="M-421,400.5c0-2.5,2-4.5,4.5-4.5c2.5,0,4.5,2,4.5,4.5s-2,4.5-4.5,4.5
			C-419,405-421,403-421,400.5"/>
		<path clip-path="url(#SVGID_6_)" fill="#B4B8BF" d="M-421,400.5c0-2.4,2-4.4,4.4-4.4s4.4,2,4.4,4.4c0,2.4-2,4.4-4.4,4.4
			S-421,403-421,400.5"/>
	</g>
	<g>
		<defs>
			<path id="SVGID_7_" d="M-419.3,397.1c0.3-0.2,0.1-1-0.3-1.8c0.5,1.7,0.2,1.9-1.3,1c0,0,0,0,0,0l0,0
				C-420.3,396.8-419.6,397.3-419.3,397.1"/>
		</defs>
		<clipPath id="SVGID_8_">
			<use xlink:href="#SVGID_7_"  overflow="visible"/>
		</clipPath>
		<rect x="-420.9" y="395.3" clip-path="url(#SVGID_8_)" fill="#4F5252" width="1.8" height="1.9"/>
		<path clip-path="url(#SVGID_8_)" fill="#515555" d="M-422.7,400.5c0-3.4,2.7-6.1,6.1-6.1c3.4,0,6.1,2.7,6.1,6.1
			c0,3.4-2.7,6.1-6.1,6.1C-419.9,406.6-422.7,403.9-422.7,400.5"/>
		<path clip-path="url(#SVGID_8_)" fill="#535757" d="M-422.6,400.5c0-3.3,2.7-6.1,6.1-6.1c3.4,0,6.1,2.7,6.1,6.1
			c0,3.3-2.7,6.1-6.1,6.1C-419.9,406.6-422.6,403.9-422.6,400.5"/>
		<path clip-path="url(#SVGID_8_)" fill="#56595A" d="M-422.6,400.5c0-3.3,2.7-6,6.1-6c3.3,0,6.1,2.7,6.1,6c0,3.3-2.7,6-6.1,6
			C-419.9,406.6-422.6,403.9-422.6,400.5"/>
		<path clip-path="url(#SVGID_8_)" fill="#595D5D" d="M-422.6,400.5c0-3.3,2.7-6,6-6c3.3,0,6,2.7,6,6c0,3.3-2.7,6-6,6
			C-419.9,406.5-422.6,403.8-422.6,400.5"/>
		<path clip-path="url(#SVGID_8_)" fill="#5B5F60" d="M-422.6,400.5c0-3.3,2.7-6,6-6c3.3,0,6,2.7,6,6c0,3.3-2.7,6-6,6
			C-419.9,406.5-422.6,403.8-422.6,400.5"/>
		<path clip-path="url(#SVGID_8_)" fill="#5C6162" d="M-422.5,400.5c0-3.3,2.7-6,6-6c3.3,0,6,2.7,6,6c0,3.3-2.7,6-6,6
			C-419.9,406.5-422.5,403.8-422.5,400.5"/>
		<path clip-path="url(#SVGID_8_)" fill="#5F6465" d="M-422.5,400.5c0-3.3,2.7-5.9,6-5.9c3.3,0,6,2.7,6,5.9c0,3.3-2.7,5.9-6,5.9
			C-419.8,406.5-422.5,403.8-422.5,400.5"/>
		<path clip-path="url(#SVGID_8_)" fill="#626668" d="M-422.5,400.5c0-3.3,2.7-5.9,5.9-5.9c3.3,0,5.9,2.6,5.9,5.9
			c0,3.3-2.7,5.9-5.9,5.9C-419.8,406.4-422.5,403.8-422.5,400.5"/>
		<path clip-path="url(#SVGID_8_)" fill="#64696B" d="M-422.5,400.5c0-3.3,2.6-5.9,5.9-5.9c3.3,0,5.9,2.6,5.9,5.9
			c0,3.3-2.6,5.9-5.9,5.9C-419.8,406.4-422.5,403.8-422.5,400.5"/>
		<path clip-path="url(#SVGID_8_)" fill="#656A6D" d="M-422.4,400.5c0-3.2,2.6-5.9,5.9-5.9c3.3,0,5.9,2.6,5.9,5.9
			c0,3.2-2.6,5.9-5.9,5.9C-419.8,406.4-422.4,403.8-422.4,400.5"/>
		<path clip-path="url(#SVGID_8_)" fill="#676C6F" d="M-422.4,400.5c0-3.2,2.6-5.8,5.9-5.8c3.2,0,5.9,2.6,5.9,5.8
			c0,3.2-2.6,5.8-5.9,5.8C-419.8,406.4-422.4,403.8-422.4,400.5"/>
		<path clip-path="url(#SVGID_8_)" fill="#6A7073" d="M-422.4,400.5c0-3.2,2.6-5.8,5.8-5.8c3.2,0,5.8,2.6,5.8,5.8
			c0,3.2-2.6,5.8-5.8,5.8C-419.8,406.3-422.4,403.7-422.4,400.5"/>
		<path clip-path="url(#SVGID_8_)" fill="#6C7175" d="M-422.4,400.5c0-3.2,2.6-5.8,5.8-5.8c3.2,0,5.8,2.6,5.8,5.8
			c0,3.2-2.6,5.8-5.8,5.8C-419.8,406.3-422.4,403.7-422.4,400.5"/>
		<path clip-path="url(#SVGID_8_)" fill="#6D7376" d="M-422.3,400.5c0-3.2,2.6-5.8,5.8-5.8c3.2,0,5.8,2.6,5.8,5.8
			c0,3.2-2.6,5.8-5.8,5.8C-419.8,406.3-422.3,403.7-422.3,400.5"/>
		<path clip-path="url(#SVGID_8_)" fill="#707679" d="M-422.3,400.5c0-3.2,2.6-5.7,5.8-5.7c3.2,0,5.8,2.6,5.8,5.7
			c0,3.2-2.6,5.7-5.8,5.7C-419.7,406.3-422.3,403.7-422.3,400.5"/>
		<path clip-path="url(#SVGID_8_)" fill="#72787C" d="M-422.3,400.5c0-3.2,2.6-5.7,5.7-5.7c3.2,0,5.7,2.6,5.7,5.7
			c0,3.2-2.6,5.7-5.7,5.7C-419.7,406.3-422.3,403.7-422.3,400.5"/>
		<path clip-path="url(#SVGID_8_)" fill="#74797D" d="M-422.3,400.5c0-3.1,2.6-5.7,5.7-5.7c3.2,0,5.7,2.6,5.7,5.7
			c0,3.1-2.6,5.7-5.7,5.7C-419.7,406.2-422.3,403.7-422.3,400.5"/>
		<path clip-path="url(#SVGID_8_)" fill="#757C7F" d="M-422.3,400.5c0-3.1,2.6-5.7,5.7-5.7c3.1,0,5.7,2.5,5.7,5.7
			c0,3.1-2.6,5.7-5.7,5.7C-419.7,406.2-422.3,403.7-422.3,400.5"/>
		<path clip-path="url(#SVGID_8_)" fill="#787D80" d="M-422.2,400.5c0-3.1,2.5-5.7,5.7-5.7c3.1,0,5.7,2.5,5.7,5.7
			c0,3.1-2.5,5.7-5.7,5.7C-419.7,406.2-422.2,403.7-422.2,400.5"/>
		<path clip-path="url(#SVGID_8_)" fill="#797F82" d="M-422.2,400.5c0-3.1,2.5-5.6,5.6-5.6c3.1,0,5.6,2.5,5.6,5.6
			c0,3.1-2.5,5.6-5.6,5.6C-419.7,406.2-422.2,403.6-422.2,400.5"/>
		<path clip-path="url(#SVGID_8_)" fill="#7A8083" d="M-422.2,400.5c0-3.1,2.5-5.6,5.6-5.6c3.1,0,5.6,2.5,5.6,5.6
			c0,3.1-2.5,5.6-5.6,5.6C-419.7,406.1-422.2,403.6-422.2,400.5"/>
		<path clip-path="url(#SVGID_8_)" fill="#7B8084" d="M-422.2,400.5c0-3.1,2.5-5.6,5.6-5.6c3.1,0,5.6,2.5,5.6,5.6
			c0,3.1-2.5,5.6-5.6,5.6C-419.6,406.1-422.2,403.6-422.2,400.5"/>
		<path clip-path="url(#SVGID_8_)" fill="#7C8084" d="M-422.1,400.5c0-3.1,2.5-5.6,5.6-5.6c3.1,0,5.6,2.5,5.6,5.6
			c0,3.1-2.5,5.6-5.6,5.6C-419.6,406.1-422.1,403.6-422.1,400.5"/>
		<path clip-path="url(#SVGID_8_)" fill="#7C8186" d="M-422.1,400.5c0-3.1,2.5-5.5,5.6-5.5c3.1,0,5.6,2.5,5.6,5.5
			c0,3.1-2.5,5.5-5.6,5.5C-419.6,406.1-422.1,403.6-422.1,400.5"/>
		<path clip-path="url(#SVGID_8_)" fill="#7C8186" d="M-422.1,400.5c0-3,2.5-5.5,5.5-5.5c3.1,0,5.5,2.5,5.5,5.5c0,3-2.5,5.5-5.5,5.5
			C-419.6,406-422.1,403.6-422.1,400.5"/>
		<path clip-path="url(#SVGID_8_)" fill="#7F8488" d="M-422,400.5c0-3,2.5-5.5,5.5-5.5c3,0,5.5,2.4,5.5,5.5c0,3-2.5,5.5-5.5,5.5
			C-419.6,406-422,403.5-422,400.5"/>
		<path clip-path="url(#SVGID_8_)" fill="#81868C" d="M-422,400.5c0-3,2.4-5.4,5.4-5.4c3,0,5.4,2.4,5.4,5.4c0,3-2.4,5.4-5.4,5.4
			C-419.6,405.9-422,403.5-422,400.5"/>
		<path clip-path="url(#SVGID_8_)" fill="#83898D" d="M-421.9,400.5c0-3,2.4-5.4,5.4-5.4c3,0,5.4,2.4,5.4,5.4c0,3-2.4,5.4-5.4,5.4
			C-419.5,405.9-421.9,403.5-421.9,400.5"/>
		<path clip-path="url(#SVGID_8_)" fill="#868C91" d="M-421.9,400.5c0-2.9,2.4-5.3,5.3-5.3c2.9,0,5.3,2.4,5.3,5.3
			c0,2.9-2.4,5.3-5.3,5.3C-419.5,405.8-421.9,403.5-421.9,400.5"/>
		<path clip-path="url(#SVGID_8_)" fill="#888E93" d="M-421.8,400.5c0-2.9,2.4-5.3,5.3-5.3c2.9,0,5.3,2.4,5.3,5.3
			c0,2.9-2.4,5.3-5.3,5.3C-419.5,405.8-421.8,403.4-421.8,400.5"/>
		<path clip-path="url(#SVGID_8_)" fill="#898F95" d="M-421.8,400.5c0-2.9,2.3-5.2,5.2-5.2c2.9,0,5.2,2.3,5.2,5.2
			c0,2.9-2.3,5.2-5.2,5.2C-419.4,405.8-421.8,403.4-421.8,400.5"/>
		<path clip-path="url(#SVGID_8_)" fill="#8D9298" d="M-421.7,400.5c0-2.9,2.3-5.2,5.2-5.2c2.9,0,5.2,2.3,5.2,5.2
			c0,2.9-2.3,5.2-5.2,5.2C-419.4,405.7-421.7,403.4-421.7,400.5"/>
		<path clip-path="url(#SVGID_8_)" fill="#8E939A" d="M-421.7,400.5c0-2.8,2.3-5.1,5.1-5.1c2.8,0,5.1,2.3,5.1,5.1
			c0,2.8-2.3,5.1-5.1,5.1C-419.4,405.7-421.7,403.4-421.7,400.5"/>
		<path clip-path="url(#SVGID_8_)" fill="#91979E" d="M-421.7,400.5c0-2.8,2.3-5.1,5.1-5.1c2.8,0,5.1,2.3,5.1,5.1
			c0,2.8-2.3,5.1-5.1,5.1C-419.4,405.6-421.7,403.3-421.7,400.5"/>
		<path clip-path="url(#SVGID_8_)" fill="#959AA1" d="M-421.6,400.5c0-2.8,2.3-5,5-5c2.8,0,5,2.3,5,5c0,2.8-2.3,5-5,5
			C-419.3,405.6-421.6,403.3-421.6,400.5"/>
		<path clip-path="url(#SVGID_8_)" fill="#989DA3" d="M-421.6,400.5c0-2.8,2.2-5,5-5c2.8,0,5,2.2,5,5c0,2.8-2.2,5-5,5
			C-419.3,405.5-421.6,403.3-421.6,400.5"/>
		<path clip-path="url(#SVGID_8_)" fill="#9AA0A7" d="M-421.5,400.5c0-2.7,2.2-4.9,5-4.9c2.7,0,5,2.2,5,4.9c0,2.7-2.2,4.9-5,4.9
			C-419.3,405.5-421.5,403.3-421.5,400.5"/>
		<path clip-path="url(#SVGID_8_)" fill="#9CA1A8" d="M-421.5,400.5c0-2.7,2.2-4.9,4.9-4.9c2.7,0,4.9,2.2,4.9,4.9
			c0,2.7-2.2,4.9-4.9,4.9C-419.3,405.4-421.5,403.2-421.5,400.5"/>
		<path clip-path="url(#SVGID_8_)" fill="#A1A5AC" d="M-421.4,400.5c0-2.7,2.2-4.8,4.9-4.8c2.7,0,4.9,2.2,4.9,4.8
			c0,2.7-2.2,4.8-4.9,4.8C-419.2,405.4-421.4,403.2-421.4,400.5"/>
		<path clip-path="url(#SVGID_8_)" fill="#A3A7AE" d="M-421.4,400.5c0-2.6,2.2-4.8,4.8-4.8c2.7,0,4.8,2.1,4.8,4.8
			c0,2.6-2.2,4.8-4.8,4.8C-419.2,405.3-421.4,403.2-421.4,400.5"/>
		<path clip-path="url(#SVGID_8_)" fill="#A5A9B0" d="M-421.3,400.5c0-2.6,2.1-4.7,4.8-4.7c2.6,0,4.8,2.1,4.8,4.7
			c0,2.6-2.1,4.7-4.8,4.7C-419.2,405.3-421.3,403.1-421.3,400.5"/>
		<path clip-path="url(#SVGID_8_)" fill="#A7ABB2" d="M-421.3,400.5c0-2.6,2.1-4.7,4.7-4.7c2.6,0,4.7,2.1,4.7,4.7
			c0,2.6-2.1,4.7-4.7,4.7C-419.2,405.2-421.3,403.1-421.3,400.5"/>
		<path clip-path="url(#SVGID_8_)" fill="#AAAEB5" d="M-421.2,400.5c0-2.6,2.1-4.6,4.7-4.6c2.6,0,4.7,2.1,4.7,4.6
			c0,2.6-2.1,4.6-4.7,4.6C-419.1,405.2-421.2,403.1-421.2,400.5"/>
		<path clip-path="url(#SVGID_8_)" fill="#ADB1B8" d="M-421.2,400.5c0-2.5,2.1-4.6,4.6-4.6c2.5,0,4.6,2.1,4.6,4.6
			c0,2.5-2.1,4.6-4.6,4.6C-419.1,405.1-421.2,403.1-421.2,400.5"/>
		<path clip-path="url(#SVGID_8_)" fill="#B0B4BB" d="M-421.1,400.5c0-2.5,2-4.5,4.6-4.5c2.5,0,4.6,2,4.6,4.5c0,2.5-2,4.5-4.6,4.5
			C-419.1,405.1-421.1,403-421.1,400.5"/>
		<path clip-path="url(#SVGID_8_)" fill="#B1B6BD" d="M-421.1,400.5c0-2.5,2-4.5,4.5-4.5c2.5,0,4.5,2,4.5,4.5c0,2.5-2,4.5-4.5,4.5
			C-419,405-421.1,403-421.1,400.5"/>
		<path clip-path="url(#SVGID_8_)" fill="#B4B7BE" d="M-421,400.5c0-2.5,2-4.5,4.5-4.5c2.5,0,4.5,2,4.5,4.5c0,2.5-2,4.5-4.5,4.5
			C-419,405-421,403-421,400.5"/>
		<path clip-path="url(#SVGID_8_)" fill="#B4B8BF" d="M-421,400.5c0-2.4,2-4.4,4.4-4.4c2.4,0,4.4,2,4.4,4.4c0,2.4-2,4.4-4.4,4.4
			C-419,404.9-421,403-421,400.5"/>
		<path clip-path="url(#SVGID_8_)" fill="#B6BAC1" d="M-420.9,400.5c0-2.4,2-4.4,4.4-4.4c2.4,0,4.4,1.9,4.4,4.4c0,2.4-2,4.4-4.4,4.4
			C-419,404.9-420.9,402.9-420.9,400.5"/>
		<path clip-path="url(#SVGID_8_)" fill="#B6BAC1" d="M-420.9,400.5c0-2.4,1.9-4.3,4.3-4.3c2.4,0,4.3,1.9,4.3,4.3
			c0,2.4-1.9,4.3-4.3,4.3C-418.9,404.8-420.9,402.9-420.9,400.5"/>
	</g>
	<g>
		<defs>
			<path id="SVGID_9_" d="M-420.9,399.4c0.1-0.4-0.6-0.9-1.3-1.2c1.4,1.1,1.3,1.4-0.5,1.6C-421.8,399.8-421,399.8-420.9,399.4"/>
		</defs>
		<clipPath id="SVGID_10_">
			<use xlink:href="#SVGID_9_"  overflow="visible"/>
		</clipPath>
		<rect x="-422.7" y="398.2" clip-path="url(#SVGID_10_)" fill="#4F5252" width="1.8" height="1.6"/>
		<path clip-path="url(#SVGID_10_)" fill="#515555" d="M-422.7,400.5c0-3.3,2.7-6.1,6.1-6.1c3.4,0,6.1,2.7,6.1,6.1
			c0,3.3-2.7,6.1-6.1,6.1C-419.9,406.6-422.7,403.8-422.7,400.5"/>
		<path clip-path="url(#SVGID_10_)" fill="#535757" d="M-422.6,400.5c0-3.3,2.7-6,6.1-6c3.3,0,6.1,2.7,6.1,6c0,3.3-2.7,6-6.1,6
			C-419.9,406.5-422.6,403.8-422.6,400.5"/>
		<path clip-path="url(#SVGID_10_)" fill="#56595A" d="M-422.6,400.5c0-3.3,2.7-6,6-6c3.3,0,6,2.7,6,6c0,3.3-2.7,6-6,6
			C-419.9,406.5-422.6,403.8-422.6,400.5"/>
		<path clip-path="url(#SVGID_10_)" fill="#595D5D" d="M-422.6,400.5c0-3.3,2.7-6,6-6s6,2.7,6,6c0,3.3-2.7,6-6,6
			S-422.6,403.8-422.6,400.5"/>
		<path clip-path="url(#SVGID_10_)" fill="#5B5F60" d="M-422.6,400.5c0-3.3,2.7-6,6-6c3.3,0,6,2.7,6,6c0,3.3-2.7,6-6,6
			C-419.9,406.5-422.6,403.8-422.6,400.5"/>
		<path clip-path="url(#SVGID_10_)" fill="#5C6162" d="M-422.5,400.5c0-3.3,2.7-5.9,6-5.9c3.3,0,6,2.7,6,5.9c0,3.3-2.7,5.9-6,5.9
			C-419.9,406.4-422.5,403.8-422.5,400.5"/>
		<path clip-path="url(#SVGID_10_)" fill="#5F6465" d="M-422.5,400.5c0-3.3,2.7-5.9,5.9-5.9c3.3,0,5.9,2.7,5.9,5.9
			c0,3.3-2.7,5.9-5.9,5.9C-419.9,406.4-422.5,403.8-422.5,400.5"/>
		<path clip-path="url(#SVGID_10_)" fill="#626668" d="M-422.5,400.5c0-3.3,2.6-5.9,5.9-5.9c3.3,0,5.9,2.6,5.9,5.9
			c0,3.3-2.6,5.9-5.9,5.9C-419.8,406.4-422.5,403.8-422.5,400.5"/>
		<path clip-path="url(#SVGID_10_)" fill="#64696B" d="M-422.5,400.5c0-3.2,2.6-5.9,5.9-5.9c3.3,0,5.9,2.6,5.9,5.9
			c0,3.2-2.6,5.9-5.9,5.9C-419.8,406.4-422.5,403.7-422.5,400.5"/>
		<path clip-path="url(#SVGID_10_)" fill="#656A6D" d="M-422.4,400.5c0-3.2,2.6-5.8,5.9-5.8c3.2,0,5.9,2.6,5.9,5.8
			c0,3.2-2.6,5.8-5.9,5.8C-419.8,406.3-422.4,403.7-422.4,400.5"/>
		<path clip-path="url(#SVGID_10_)" fill="#676C6F" d="M-422.4,400.5c0-3.2,2.6-5.8,5.8-5.8c3.2,0,5.8,2.6,5.8,5.8
			c0,3.2-2.6,5.8-5.8,5.8C-419.8,406.3-422.4,403.7-422.4,400.5"/>
		<path clip-path="url(#SVGID_10_)" fill="#6A7073" d="M-422.4,400.5c0-3.2,2.6-5.8,5.8-5.8c3.2,0,5.8,2.6,5.8,5.8
			c0,3.2-2.6,5.8-5.8,5.8C-419.8,406.3-422.4,403.7-422.4,400.5"/>
		<path clip-path="url(#SVGID_10_)" fill="#6C7175" d="M-422.4,400.5c0-3.2,2.6-5.8,5.8-5.8c3.2,0,5.8,2.6,5.8,5.8
			c0,3.2-2.6,5.8-5.8,5.8C-419.8,406.3-422.4,403.7-422.4,400.5"/>
		<path clip-path="url(#SVGID_10_)" fill="#6D7376" d="M-422.4,400.5c0-3.2,2.6-5.8,5.8-5.8c3.2,0,5.8,2.6,5.8,5.8
			c0,3.2-2.6,5.8-5.8,5.8C-419.8,406.3-422.4,403.7-422.4,400.5"/>
		<path clip-path="url(#SVGID_10_)" fill="#707679" d="M-422.3,400.5c0-3.2,2.6-5.7,5.8-5.7c3.2,0,5.8,2.6,5.8,5.7
			c0,3.2-2.6,5.7-5.8,5.7C-419.8,406.2-422.3,403.7-422.3,400.5"/>
		<path clip-path="url(#SVGID_10_)" fill="#72787C" d="M-422.3,400.5c0-3.2,2.6-5.7,5.7-5.7c3.2,0,5.7,2.6,5.7,5.7
			c0,3.2-2.6,5.7-5.7,5.7C-419.7,406.2-422.3,403.6-422.3,400.5"/>
		<path clip-path="url(#SVGID_10_)" fill="#74797D" d="M-422.3,400.5c0-3.1,2.6-5.7,5.7-5.7c3.2,0,5.7,2.5,5.7,5.7
			c0,3.1-2.6,5.7-5.7,5.7C-419.7,406.2-422.3,403.6-422.3,400.5"/>
		<path clip-path="url(#SVGID_10_)" fill="#757C7F" d="M-422.3,400.5c0-3.1,2.5-5.7,5.7-5.7c3.1,0,5.7,2.5,5.7,5.7
			c0,3.1-2.5,5.7-5.7,5.7C-419.7,406.2-422.3,403.6-422.3,400.5"/>
		<path clip-path="url(#SVGID_10_)" fill="#787D80" d="M-422.2,400.5c0-3.1,2.5-5.6,5.7-5.6c3.1,0,5.7,2.5,5.7,5.6
			c0,3.1-2.5,5.6-5.7,5.6C-419.7,406.1-422.2,403.6-422.2,400.5"/>
		<path clip-path="url(#SVGID_10_)" fill="#797F82" d="M-422.2,400.5c0-3.1,2.5-5.6,5.6-5.6c3.1,0,5.6,2.5,5.6,5.6
			c0,3.1-2.5,5.6-5.6,5.6C-419.7,406.1-422.2,403.6-422.2,400.5"/>
		<path clip-path="url(#SVGID_10_)" fill="#7A8083" d="M-422.2,400.5c0-3.1,2.5-5.6,5.6-5.6c3.1,0,5.6,2.5,5.6,5.6
			c0,3.1-2.5,5.6-5.6,5.6C-419.7,406.1-422.2,403.6-422.2,400.5"/>
		<path clip-path="url(#SVGID_10_)" fill="#7B8084" d="M-422.2,400.5c0-3.1,2.5-5.6,5.6-5.6c3.1,0,5.6,2.5,5.6,5.6
			c0,3.1-2.5,5.6-5.6,5.6C-419.7,406.1-422.2,403.6-422.2,400.5"/>
		<path clip-path="url(#SVGID_10_)" fill="#7C8084" d="M-422.1,400.5c0-3.1,2.5-5.5,5.6-5.5c3.1,0,5.6,2.5,5.6,5.5
			c0,3.1-2.5,5.5-5.6,5.5C-419.6,406-422.1,403.6-422.1,400.5"/>
		<path clip-path="url(#SVGID_10_)" fill="#7C8186" d="M-422.1,400.5c0-3,2.5-5.5,5.5-5.5c3.1,0,5.5,2.5,5.5,5.5
			c0,3-2.5,5.5-5.5,5.5C-419.6,406-422.1,403.5-422.1,400.5"/>
		<path clip-path="url(#SVGID_10_)" fill="#7C8186" d="M-422.1,400.5c0-3,2.5-5.5,5.5-5.5c3,0,5.5,2.5,5.5,5.5c0,3-2.5,5.5-5.5,5.5
			C-419.6,406-422.1,403.5-422.1,400.5"/>
		<path clip-path="url(#SVGID_10_)" fill="#7F8488" d="M-422,400.5c0-3,2.4-5.4,5.5-5.4c3,0,5.5,2.4,5.5,5.4c0,3-2.4,5.4-5.5,5.4
			C-419.6,405.9-422,403.5-422,400.5"/>
		<path clip-path="url(#SVGID_10_)" fill="#81868C" d="M-422,400.5c0-3,2.4-5.4,5.4-5.4c3,0,5.4,2.4,5.4,5.4c0,3-2.4,5.4-5.4,5.4
			C-419.6,405.9-422,403.5-422,400.5"/>
		<path clip-path="url(#SVGID_10_)" fill="#83898D" d="M-421.9,400.5c0-3,2.4-5.4,5.4-5.4c3,0,5.4,2.4,5.4,5.4c0,3-2.4,5.4-5.4,5.4
			C-419.5,405.8-421.9,403.5-421.9,400.5"/>
		<path clip-path="url(#SVGID_10_)" fill="#868C91" d="M-421.9,400.5c0-2.9,2.4-5.3,5.3-5.3c2.9,0,5.3,2.4,5.3,5.3
			c0,2.9-2.4,5.3-5.3,5.3C-419.5,405.8-421.9,403.4-421.9,400.5"/>
		<path clip-path="url(#SVGID_10_)" fill="#888E93" d="M-421.8,400.5c0-2.9,2.4-5.3,5.3-5.3c2.9,0,5.3,2.4,5.3,5.3
			c0,2.9-2.4,5.3-5.3,5.3C-419.5,405.8-421.8,403.4-421.8,400.5"/>
		<path clip-path="url(#SVGID_10_)" fill="#898F95" d="M-421.8,400.5c0-2.9,2.3-5.2,5.2-5.2c2.9,0,5.2,2.3,5.2,5.2
			c0,2.9-2.3,5.2-5.2,5.2C-419.5,405.7-421.8,403.4-421.8,400.5"/>
		<path clip-path="url(#SVGID_10_)" fill="#8D9298" d="M-421.8,400.5c0-2.8,2.3-5.2,5.2-5.2c2.9,0,5.2,2.3,5.2,5.2
			c0,2.8-2.3,5.2-5.2,5.2C-419.4,405.7-421.8,403.3-421.8,400.5"/>
		<path clip-path="url(#SVGID_10_)" fill="#8E939A" d="M-421.7,400.5c0-2.8,2.3-5.1,5.1-5.1c2.8,0,5.1,2.3,5.1,5.1
			c0,2.8-2.3,5.1-5.1,5.1C-419.4,405.6-421.7,403.3-421.7,400.5"/>
		<path clip-path="url(#SVGID_10_)" fill="#91979E" d="M-421.7,400.5c0-2.8,2.3-5.1,5.1-5.1c2.8,0,5.1,2.3,5.1,5.1
			c0,2.8-2.3,5.1-5.1,5.1C-419.4,405.6-421.7,403.3-421.7,400.5"/>
		<path clip-path="url(#SVGID_10_)" fill="#959AA1" d="M-421.6,400.5c0-2.8,2.3-5,5-5c2.8,0,5,2.2,5,5c0,2.8-2.3,5-5,5
			C-419.4,405.5-421.6,403.3-421.6,400.5"/>
		<path clip-path="url(#SVGID_10_)" fill="#989DA3" d="M-421.6,400.5c0-2.7,2.2-5,5-5c2.8,0,5,2.2,5,5c0,2.7-2.2,5-5,5
			C-419.3,405.5-421.6,403.2-421.6,400.5"/>
		<path clip-path="url(#SVGID_10_)" fill="#9AA0A7" d="M-421.5,400.5c0-2.7,2.2-4.9,4.9-4.9c2.7,0,4.9,2.2,4.9,4.9
			c0,2.7-2.2,4.9-4.9,4.9C-419.3,405.4-421.5,403.2-421.5,400.5"/>
		<path clip-path="url(#SVGID_10_)" fill="#9CA1A8" d="M-421.5,400.5c0-2.7,2.2-4.9,4.9-4.9c2.7,0,4.9,2.2,4.9,4.9
			c0,2.7-2.2,4.9-4.9,4.9C-419.3,405.4-421.5,403.2-421.5,400.5"/>
		<path clip-path="url(#SVGID_10_)" fill="#A1A5AC" d="M-421.4,400.5c0-2.7,2.2-4.8,4.8-4.8c2.7,0,4.8,2.2,4.8,4.8
			c0,2.7-2.2,4.8-4.8,4.8C-419.2,405.3-421.4,403.2-421.4,400.5"/>
		<path clip-path="url(#SVGID_10_)" fill="#A3A7AE" d="M-421.4,400.5c0-2.6,2.1-4.8,4.8-4.8c2.6,0,4.8,2.1,4.8,4.8
			c0,2.6-2.1,4.8-4.8,4.8C-419.2,405.3-421.4,403.1-421.4,400.5"/>
		<path clip-path="url(#SVGID_10_)" fill="#A5A9B0" d="M-421.3,400.5c0-2.6,2.1-4.7,4.7-4.7s4.7,2.1,4.7,4.7c0,2.6-2.1,4.7-4.7,4.7
			S-421.3,403.1-421.3,400.5"/>
		<path clip-path="url(#SVGID_10_)" fill="#A7ABB2" d="M-421.3,400.5c0-2.6,2.1-4.7,4.7-4.7c2.6,0,4.7,2.1,4.7,4.7
			c0,2.6-2.1,4.7-4.7,4.7C-419.2,405.2-421.3,403.1-421.3,400.5"/>
		<path clip-path="url(#SVGID_10_)" fill="#AAAEB5" d="M-421.2,400.5c0-2.6,2.1-4.6,4.6-4.6c2.6,0,4.6,2.1,4.6,4.6
			c0,2.6-2.1,4.6-4.6,4.6C-419.1,405.1-421.2,403.1-421.2,400.5"/>
		<path clip-path="url(#SVGID_10_)" fill="#ADB1B8" d="M-421.2,400.5c0-2.5,2.1-4.6,4.6-4.6c2.5,0,4.6,2.1,4.6,4.6
			c0,2.5-2.1,4.6-4.6,4.6C-419.1,405.1-421.2,403-421.2,400.5"/>
		<path clip-path="url(#SVGID_10_)" fill="#B0B4BB" d="M-421.1,400.5c0-2.5,2-4.5,4.6-4.5c2.5,0,4.6,2,4.6,4.5c0,2.5-2,4.5-4.6,4.5
			C-419.1,405-421.1,403-421.1,400.5"/>
		<path clip-path="url(#SVGID_10_)" fill="#B1B6BD" d="M-421.1,400.5c0-2.5,2-4.5,4.5-4.5s4.5,2,4.5,4.5c0,2.5-2,4.5-4.5,4.5
			S-421.1,403-421.1,400.5"/>
		<path clip-path="url(#SVGID_10_)" fill="#B4B7BE" d="M-421,400.5c0-2.5,2-4.4,4.5-4.4c2.5,0,4.5,2,4.5,4.4c0,2.5-2,4.4-4.5,4.4
			C-419,404.9-421,402.9-421,400.5"/>
		<path clip-path="url(#SVGID_10_)" fill="#B4B8BF" d="M-421,400.5c0-2.4,2-4.4,4.4-4.4c2.4,0,4.4,2,4.4,4.4c0,2.4-2,4.4-4.4,4.4
			C-419,404.9-421,402.9-421,400.5"/>
		<path clip-path="url(#SVGID_10_)" fill="#B6BAC1" d="M-420.9,400.5c0-2.4,2-4.3,4.4-4.3c2.4,0,4.4,1.9,4.4,4.3
			c0,2.4-2,4.3-4.4,4.3C-419,404.8-420.9,402.9-420.9,400.5"/>
	</g>
	<g>
		<defs>
			<path id="SVGID_11_" d="M-413.9,397c0.3,0.2,1-0.2,1.6-0.8v0c0,0,0,0,0,0c-1.5,0.9-1.8,0.7-1.3-1C-414,396-414.2,396.8-413.9,397
				"/>
		</defs>
		<clipPath id="SVGID_12_">
			<use xlink:href="#SVGID_11_"  overflow="visible"/>
		</clipPath>
		<rect x="-414" y="395.2" clip-path="url(#SVGID_12_)" fill="#4F5252" width="1.8" height="1.9"/>
		<path clip-path="url(#SVGID_12_)" fill="#515555" d="M-422.7,400.5c0-3.4,2.7-6.1,6.1-6.1c3.4,0,6.1,2.7,6.1,6.1
			c0,3.4-2.7,6.1-6.1,6.1C-419.9,406.6-422.7,403.9-422.7,400.5"/>
		<path clip-path="url(#SVGID_12_)" fill="#535757" d="M-422.6,400.5c0-3.3,2.7-6.1,6.1-6.1c3.4,0,6.1,2.7,6.1,6.1s-2.7,6.1-6.1,6.1
			C-419.9,406.6-422.6,403.9-422.6,400.5"/>
		<path clip-path="url(#SVGID_12_)" fill="#56595A" d="M-422.6,400.5c0-3.3,2.7-6,6.1-6c3.3,0,6.1,2.7,6.1,6c0,3.3-2.7,6-6.1,6
			C-419.9,406.6-422.6,403.9-422.6,400.5"/>
		<path clip-path="url(#SVGID_12_)" fill="#595D5D" d="M-422.6,400.5c0-3.3,2.7-6,6-6c3.3,0,6,2.7,6,6c0,3.3-2.7,6-6,6
			C-419.9,406.5-422.6,403.8-422.6,400.5"/>
		<path clip-path="url(#SVGID_12_)" fill="#5B5F60" d="M-422.6,400.5c0-3.3,2.7-6,6-6c3.3,0,6,2.7,6,6c0,3.3-2.7,6-6,6
			C-419.9,406.5-422.6,403.8-422.6,400.5"/>
		<path clip-path="url(#SVGID_12_)" fill="#5C6162" d="M-422.6,400.5c0-3.3,2.7-6,6-6c3.3,0,6,2.7,6,6c0,3.3-2.7,6-6,6
			C-419.9,406.5-422.6,403.8-422.6,400.5"/>
		<path clip-path="url(#SVGID_12_)" fill="#5F6465" d="M-422.5,400.5c0-3.3,2.7-5.9,6-5.9c3.3,0,6,2.7,6,5.9c0,3.3-2.7,5.9-6,5.9
			C-419.9,406.5-422.5,403.8-422.5,400.5"/>
		<path clip-path="url(#SVGID_12_)" fill="#626668" d="M-422.5,400.5c0-3.3,2.7-5.9,5.9-5.9c3.3,0,5.9,2.6,5.9,5.9
			c0,3.3-2.7,5.9-5.9,5.9C-419.8,406.4-422.5,403.8-422.5,400.5"/>
		<path clip-path="url(#SVGID_12_)" fill="#64696B" d="M-422.5,400.5c0-3.3,2.6-5.9,5.9-5.9c3.3,0,5.9,2.6,5.9,5.9
			c0,3.3-2.6,5.9-5.9,5.9C-419.8,406.4-422.5,403.8-422.5,400.5"/>
		<path clip-path="url(#SVGID_12_)" fill="#656A6D" d="M-422.5,400.5c0-3.2,2.6-5.9,5.9-5.9c3.3,0,5.9,2.6,5.9,5.9
			c0,3.2-2.6,5.9-5.9,5.9C-419.8,406.4-422.5,403.8-422.5,400.5"/>
		<path clip-path="url(#SVGID_12_)" fill="#676C6F" d="M-422.4,400.5c0-3.2,2.6-5.8,5.9-5.8c3.2,0,5.9,2.6,5.9,5.8
			c0,3.2-2.6,5.8-5.9,5.8C-419.8,406.4-422.4,403.8-422.4,400.5"/>
		<path clip-path="url(#SVGID_12_)" fill="#6A7073" d="M-422.4,400.5c0-3.2,2.6-5.8,5.8-5.8c3.2,0,5.8,2.6,5.8,5.8
			c0,3.2-2.6,5.8-5.8,5.8C-419.8,406.3-422.4,403.7-422.4,400.5"/>
		<path clip-path="url(#SVGID_12_)" fill="#6C7175" d="M-422.4,400.5c0-3.2,2.6-5.8,5.8-5.8c3.2,0,5.8,2.6,5.8,5.8
			c0,3.2-2.6,5.8-5.8,5.8C-419.8,406.3-422.4,403.7-422.4,400.5"/>
		<path clip-path="url(#SVGID_12_)" fill="#6D7376" d="M-422.4,400.5c0-3.2,2.6-5.8,5.8-5.8c3.2,0,5.8,2.6,5.8,5.8
			c0,3.2-2.6,5.8-5.8,5.8C-419.8,406.3-422.4,403.7-422.4,400.5"/>
		<path clip-path="url(#SVGID_12_)" fill="#707679" d="M-422.3,400.5c0-3.2,2.6-5.7,5.8-5.7c3.2,0,5.8,2.6,5.8,5.7
			c0,3.2-2.6,5.7-5.8,5.7C-419.8,406.3-422.3,403.7-422.3,400.5"/>
		<path clip-path="url(#SVGID_12_)" fill="#72787C" d="M-422.3,400.5c0-3.2,2.6-5.7,5.7-5.7c3.2,0,5.7,2.6,5.7,5.7
			c0,3.2-2.6,5.7-5.7,5.7C-419.7,406.2-422.3,403.7-422.3,400.5"/>
		<path clip-path="url(#SVGID_12_)" fill="#74797D" d="M-422.3,400.5c0-3.1,2.6-5.7,5.7-5.7c3.2,0,5.7,2.6,5.7,5.7
			c0,3.1-2.6,5.7-5.7,5.7C-419.7,406.2-422.3,403.7-422.3,400.5"/>
		<path clip-path="url(#SVGID_12_)" fill="#757C7F" d="M-422.3,400.5c0-3.1,2.6-5.7,5.7-5.7c3.1,0,5.7,2.5,5.7,5.7
			c0,3.1-2.6,5.7-5.7,5.7C-419.7,406.2-422.3,403.7-422.3,400.5"/>
		<path clip-path="url(#SVGID_12_)" fill="#787D80" d="M-422.2,400.5c0-3.1,2.5-5.7,5.7-5.7c3.1,0,5.7,2.5,5.7,5.7
			c0,3.1-2.5,5.7-5.7,5.7C-419.7,406.2-422.2,403.6-422.2,400.5"/>
		<path clip-path="url(#SVGID_12_)" fill="#797F82" d="M-422.2,400.5c0-3.1,2.5-5.6,5.7-5.6c3.1,0,5.7,2.5,5.7,5.6
			c0,3.1-2.5,5.6-5.7,5.6C-419.7,406.2-422.2,403.6-422.2,400.5"/>
		<path clip-path="url(#SVGID_12_)" fill="#7A8083" d="M-422.2,400.5c0-3.1,2.5-5.6,5.6-5.6c3.1,0,5.6,2.5,5.6,5.6
			c0,3.1-2.5,5.6-5.6,5.6C-419.7,406.1-422.2,403.6-422.2,400.5"/>
		<path clip-path="url(#SVGID_12_)" fill="#7B8084" d="M-422.2,400.5c0-3.1,2.5-5.6,5.6-5.6c3.1,0,5.6,2.5,5.6,5.6
			c0,3.1-2.5,5.6-5.6,5.6C-419.7,406.1-422.2,403.6-422.2,400.5"/>
		<path clip-path="url(#SVGID_12_)" fill="#7C8084" d="M-422.1,400.5c0-3.1,2.5-5.6,5.6-5.6c3.1,0,5.6,2.5,5.6,5.6
			c0,3.1-2.5,5.6-5.6,5.6C-419.6,406.1-422.1,403.6-422.1,400.5"/>
		<path clip-path="url(#SVGID_12_)" fill="#7C8186" d="M-422.1,400.5c0-3.1,2.5-5.5,5.6-5.5c3.1,0,5.6,2.5,5.6,5.5
			c0,3.1-2.5,5.5-5.6,5.5C-419.6,406.1-422.1,403.6-422.1,400.5"/>
		<path clip-path="url(#SVGID_12_)" fill="#7C8186" d="M-422.1,400.5c0-3,2.5-5.5,5.5-5.5c3.1,0,5.5,2.5,5.5,5.5
			c0,3-2.5,5.5-5.5,5.5C-419.6,406-422.1,403.6-422.1,400.5"/>
		<path clip-path="url(#SVGID_12_)" fill="#7F8488" d="M-422.1,400.5c0-3,2.5-5.5,5.5-5.5c3,0,5.5,2.4,5.5,5.5c0,3-2.5,5.5-5.5,5.5
			C-419.6,406-422.1,403.5-422.1,400.5"/>
		<path clip-path="url(#SVGID_12_)" fill="#81868C" d="M-422,400.5c0-3,2.4-5.4,5.4-5.4c3,0,5.4,2.4,5.4,5.4c0,3-2.4,5.4-5.4,5.4
			C-419.6,405.9-422,403.5-422,400.5"/>
		<path clip-path="url(#SVGID_12_)" fill="#83898D" d="M-422,400.5c0-3,2.4-5.4,5.4-5.4c3,0,5.4,2.4,5.4,5.4c0,3-2.4,5.4-5.4,5.4
			C-419.5,405.9-422,403.5-422,400.5"/>
		<path clip-path="url(#SVGID_12_)" fill="#868C91" d="M-421.9,400.5c0-2.9,2.4-5.3,5.3-5.3c2.9,0,5.3,2.4,5.3,5.3
			c0,2.9-2.4,5.3-5.3,5.3C-419.5,405.8-421.9,403.5-421.9,400.5"/>
		<path clip-path="url(#SVGID_12_)" fill="#888E93" d="M-421.9,400.5c0-2.9,2.4-5.3,5.3-5.3c2.9,0,5.3,2.4,5.3,5.3
			c0,2.9-2.4,5.3-5.3,5.3C-419.5,405.8-421.9,403.4-421.9,400.5"/>
		<path clip-path="url(#SVGID_12_)" fill="#898F95" d="M-421.8,400.5c0-2.9,2.3-5.2,5.2-5.2c2.9,0,5.2,2.3,5.2,5.2
			c0,2.9-2.3,5.2-5.2,5.2C-419.5,405.7-421.8,403.4-421.8,400.5"/>
		<path clip-path="url(#SVGID_12_)" fill="#8D9298" d="M-421.8,400.5c0-2.9,2.3-5.2,5.2-5.2c2.9,0,5.2,2.3,5.2,5.2s-2.3,5.2-5.2,5.2
			C-419.4,405.7-421.8,403.4-421.8,400.5"/>
		<path clip-path="url(#SVGID_12_)" fill="#8E939A" d="M-421.7,400.5c0-2.8,2.3-5.1,5.1-5.1c2.8,0,5.1,2.3,5.1,5.1
			c0,2.8-2.3,5.1-5.1,5.1C-419.4,405.7-421.7,403.4-421.7,400.5"/>
		<path clip-path="url(#SVGID_12_)" fill="#91979E" d="M-421.7,400.5c0-2.8,2.3-5.1,5.1-5.1c2.8,0,5.1,2.3,5.1,5.1
			c0,2.8-2.3,5.1-5.1,5.1C-419.4,405.6-421.7,403.3-421.7,400.5"/>
		<path clip-path="url(#SVGID_12_)" fill="#959AA1" d="M-421.6,400.5c0-2.8,2.3-5,5.1-5c2.8,0,5.1,2.3,5.1,5c0,2.8-2.3,5-5.1,5
			C-419.4,405.6-421.6,403.3-421.6,400.5"/>
		<path clip-path="url(#SVGID_12_)" fill="#989DA3" d="M-421.6,400.5c0-2.8,2.2-5,5-5c2.8,0,5,2.2,5,5c0,2.8-2.2,5-5,5
			C-419.3,405.5-421.6,403.3-421.6,400.5"/>
		<path clip-path="url(#SVGID_12_)" fill="#9AA0A7" d="M-421.5,400.5c0-2.7,2.2-4.9,5-4.9c2.7,0,5,2.2,5,4.9c0,2.7-2.2,4.9-5,4.9
			C-419.3,405.5-421.5,403.2-421.5,400.5"/>
		<path clip-path="url(#SVGID_12_)" fill="#9CA1A8" d="M-421.5,400.5c0-2.7,2.2-4.9,4.9-4.9c2.7,0,4.9,2.2,4.9,4.9
			c0,2.7-2.2,4.9-4.9,4.9C-419.3,405.4-421.5,403.2-421.5,400.5"/>
		<path clip-path="url(#SVGID_12_)" fill="#A1A5AC" d="M-421.4,400.5c0-2.7,2.2-4.8,4.9-4.8c2.7,0,4.9,2.2,4.9,4.8
			c0,2.7-2.2,4.8-4.9,4.8C-419.2,405.4-421.4,403.2-421.4,400.5"/>
		<path clip-path="url(#SVGID_12_)" fill="#A3A7AE" d="M-421.4,400.5c0-2.6,2.2-4.8,4.8-4.8c2.7,0,4.8,2.1,4.8,4.8
			c0,2.6-2.2,4.8-4.8,4.8C-419.2,405.3-421.4,403.2-421.4,400.5"/>
		<path clip-path="url(#SVGID_12_)" fill="#A5A9B0" d="M-421.3,400.5c0-2.6,2.1-4.7,4.8-4.7c2.6,0,4.8,2.1,4.8,4.7
			c0,2.6-2.1,4.7-4.8,4.7C-419.2,405.3-421.3,403.1-421.3,400.5"/>
		<path clip-path="url(#SVGID_12_)" fill="#A7ABB2" d="M-421.3,400.5c0-2.6,2.1-4.7,4.7-4.7c2.6,0,4.7,2.1,4.7,4.7
			c0,2.6-2.1,4.7-4.7,4.7C-419.2,405.2-421.3,403.1-421.3,400.5"/>
		<path clip-path="url(#SVGID_12_)" fill="#AAAEB5" d="M-421.2,400.5c0-2.6,2.1-4.6,4.7-4.6c2.6,0,4.7,2.1,4.7,4.6
			c0,2.6-2.1,4.6-4.7,4.6C-419.1,405.2-421.2,403.1-421.2,400.5"/>
		<path clip-path="url(#SVGID_12_)" fill="#ADB1B8" d="M-421.2,400.5c0-2.5,2.1-4.6,4.6-4.6c2.5,0,4.6,2.1,4.6,4.6
			c0,2.5-2.1,4.6-4.6,4.6C-419.1,405.1-421.2,403.1-421.2,400.5"/>
		<path clip-path="url(#SVGID_12_)" fill="#B0B4BB" d="M-421.1,400.5c0-2.5,2-4.5,4.6-4.5c2.5,0,4.6,2,4.6,4.5c0,2.5-2,4.5-4.6,4.5
			C-419.1,405.1-421.1,403-421.1,400.5"/>
		<path clip-path="url(#SVGID_12_)" fill="#B1B6BD" d="M-421.1,400.5c0-2.5,2-4.5,4.5-4.5c2.5,0,4.5,2,4.5,4.5c0,2.5-2,4.5-4.5,4.5
			C-419.1,405-421.1,403-421.1,400.5"/>
		<path clip-path="url(#SVGID_12_)" fill="#B4B7BE" d="M-421,400.5c0-2.5,2-4.5,4.5-4.5c2.5,0,4.5,2,4.5,4.5c0,2.5-2,4.5-4.5,4.5
			C-419,405-421,403-421,400.5"/>
		<path clip-path="url(#SVGID_12_)" fill="#B4B8BF" d="M-421,400.5c0-2.4,2-4.4,4.4-4.4c2.4,0,4.4,2,4.4,4.4s-2,4.4-4.4,4.4
			C-419,404.9-421,403-421,400.5"/>
		<path clip-path="url(#SVGID_12_)" fill="#B6BAC1" d="M-420.9,400.5c0-2.4,2-4.4,4.4-4.4c2.4,0,4.4,2,4.4,4.4c0,2.4-2,4.4-4.4,4.4
			C-419,404.9-420.9,402.9-420.9,400.5"/>
		<path clip-path="url(#SVGID_12_)" fill="#B6BAC1" d="M-420.9,400.5c0-2.4,1.9-4.3,4.3-4.3c2.4,0,4.3,1.9,4.3,4.3
			c0,2.4-1.9,4.3-4.3,4.3C-419,404.8-420.9,402.9-420.9,400.5"/>
	</g>
	<g>
		<defs>
			<path id="SVGID_13_" d="M-412.3,399.3c0.1,0.4,1,0.4,1.8,0.3c-1.7-0.1-1.9-0.5-0.5-1.6C-411.7,398.4-412.4,398.9-412.3,399.3"/>
		</defs>
		<clipPath id="SVGID_14_">
			<use xlink:href="#SVGID_13_"  overflow="visible"/>
		</clipPath>
		<rect x="-412.3" y="398" clip-path="url(#SVGID_14_)" fill="#4F5252" width="1.8" height="1.6"/>
		<path clip-path="url(#SVGID_14_)" fill="#515555" d="M-422.6,400.5c0-3.3,2.7-6,6.1-6c3.4,0,6.1,2.7,6.1,6c0,3.3-2.7,6-6.1,6
			C-419.9,406.6-422.6,403.8-422.6,400.5"/>
		<path clip-path="url(#SVGID_14_)" fill="#535757" d="M-422.6,400.5c0-3.3,2.7-6,6-6c3.3,0,6,2.7,6,6c0,3.3-2.7,6-6,6
			C-419.9,406.5-422.6,403.8-422.6,400.5"/>
		<path clip-path="url(#SVGID_14_)" fill="#56595A" d="M-422.5,400.5c0-3.3,2.7-6,6-6c3.3,0,6,2.7,6,6c0,3.3-2.7,6-6,6
			C-419.8,406.5-422.5,403.8-422.5,400.5"/>
		<path clip-path="url(#SVGID_14_)" fill="#595D5D" d="M-422.5,400.5c0-3.3,2.7-6,6-6c3.3,0,6,2.7,6,6c0,3.3-2.7,6-6,6
			C-419.8,406.5-422.5,403.8-422.5,400.5"/>
		<path clip-path="url(#SVGID_14_)" fill="#5B5F60" d="M-422.5,400.5c0-3.3,2.7-6,6-6c3.3,0,6,2.7,6,6c0,3.3-2.7,6-6,6
			C-419.8,406.5-422.5,403.8-422.5,400.5"/>
		<path clip-path="url(#SVGID_14_)" fill="#5C6162" d="M-422.5,400.5c0-3.3,2.7-5.9,6-5.9c3.3,0,6,2.7,6,5.9c0,3.3-2.7,5.9-6,5.9
			C-419.8,406.4-422.5,403.8-422.5,400.5"/>
		<path clip-path="url(#SVGID_14_)" fill="#5F6465" d="M-422.5,400.5c0-3.3,2.7-5.9,5.9-5.9c3.3,0,5.9,2.6,5.9,5.9
			c0,3.3-2.7,5.9-5.9,5.9C-419.8,406.4-422.5,403.8-422.5,400.5"/>
		<path clip-path="url(#SVGID_14_)" fill="#626668" d="M-422.4,400.5c0-3.2,2.6-5.9,5.9-5.9c3.3,0,5.9,2.6,5.9,5.9
			c0,3.2-2.6,5.9-5.9,5.9C-419.8,406.4-422.4,403.8-422.4,400.5"/>
		<path clip-path="url(#SVGID_14_)" fill="#64696B" d="M-422.4,400.5c0-3.2,2.6-5.9,5.9-5.9c3.2,0,5.9,2.6,5.9,5.9
			c0,3.2-2.6,5.9-5.9,5.9C-419.8,406.4-422.4,403.7-422.4,400.5"/>
		<path clip-path="url(#SVGID_14_)" fill="#656A6D" d="M-422.4,400.5c0-3.2,2.6-5.8,5.9-5.8c3.2,0,5.9,2.6,5.9,5.8
			c0,3.2-2.6,5.8-5.9,5.8C-419.8,406.3-422.4,403.7-422.4,400.5"/>
		<path clip-path="url(#SVGID_14_)" fill="#676C6F" d="M-422.4,400.5c0-3.2,2.6-5.8,5.8-5.8s5.8,2.6,5.8,5.8c0,3.2-2.6,5.8-5.8,5.8
			S-422.4,403.7-422.4,400.5"/>
		<path clip-path="url(#SVGID_14_)" fill="#6A7073" d="M-422.3,400.5c0-3.2,2.6-5.8,5.8-5.8c3.2,0,5.8,2.6,5.8,5.8
			c0,3.2-2.6,5.8-5.8,5.8C-419.7,406.3-422.3,403.7-422.3,400.5"/>
		<path clip-path="url(#SVGID_14_)" fill="#6C7175" d="M-422.3,400.5c0-3.2,2.6-5.8,5.8-5.8c3.2,0,5.8,2.6,5.8,5.8
			c0,3.2-2.6,5.8-5.8,5.8C-419.7,406.3-422.3,403.7-422.3,400.5"/>
		<path clip-path="url(#SVGID_14_)" fill="#6D7376" d="M-422.3,400.5c0-3.2,2.6-5.7,5.8-5.7c3.2,0,5.8,2.6,5.8,5.7
			c0,3.2-2.6,5.7-5.8,5.7C-419.7,406.2-422.3,403.7-422.3,400.5"/>
		<path clip-path="url(#SVGID_14_)" fill="#707679" d="M-422.3,400.5c0-3.2,2.6-5.7,5.7-5.7c3.2,0,5.7,2.6,5.7,5.7
			c0,3.2-2.6,5.7-5.7,5.7C-419.7,406.2-422.3,403.7-422.3,400.5"/>
		<path clip-path="url(#SVGID_14_)" fill="#72787C" d="M-422.2,400.5c0-3.1,2.6-5.7,5.7-5.7c3.2,0,5.7,2.5,5.7,5.7s-2.6,5.7-5.7,5.7
			C-419.7,406.2-422.2,403.7-422.2,400.5"/>
		<path clip-path="url(#SVGID_14_)" fill="#74797D" d="M-422.2,400.5c0-3.1,2.5-5.7,5.7-5.7c3.1,0,5.7,2.5,5.7,5.7
			c0,3.1-2.5,5.7-5.7,5.7C-419.7,406.2-422.2,403.6-422.2,400.5"/>
		<path clip-path="url(#SVGID_14_)" fill="#757C7F" d="M-422.2,400.5c0-3.1,2.5-5.6,5.7-5.6c3.1,0,5.7,2.5,5.7,5.6
			c0,3.1-2.5,5.6-5.7,5.6C-419.7,406.2-422.2,403.6-422.2,400.5"/>
		<path clip-path="url(#SVGID_14_)" fill="#787D80" d="M-422.2,400.5c0-3.1,2.5-5.6,5.6-5.6c3.1,0,5.6,2.5,5.6,5.6
			c0,3.1-2.5,5.6-5.6,5.6C-419.6,406.1-422.2,403.6-422.2,400.5"/>
		<path clip-path="url(#SVGID_14_)" fill="#797F82" d="M-422.1,400.5c0-3.1,2.5-5.6,5.6-5.6c3.1,0,5.6,2.5,5.6,5.6
			c0,3.1-2.5,5.6-5.6,5.6C-419.6,406.1-422.1,403.6-422.1,400.5"/>
		<path clip-path="url(#SVGID_14_)" fill="#7A8083" d="M-422.1,400.5c0-3.1,2.5-5.6,5.6-5.6c3.1,0,5.6,2.5,5.6,5.6
			c0,3.1-2.5,5.6-5.6,5.6C-419.6,406.1-422.1,403.6-422.1,400.5"/>
		<path clip-path="url(#SVGID_14_)" fill="#7B8084" d="M-422.1,400.5c0-3.1,2.5-5.6,5.6-5.6c3.1,0,5.6,2.5,5.6,5.6
			c0,3.1-2.5,5.6-5.6,5.6C-419.6,406.1-422.1,403.6-422.1,400.5"/>
		<path clip-path="url(#SVGID_14_)" fill="#7C8084" d="M-422.1,400.5c0-3.1,2.5-5.5,5.5-5.5c3.1,0,5.5,2.5,5.5,5.5s-2.5,5.5-5.5,5.5
			C-419.6,406-422.1,403.6-422.1,400.5"/>
		<path clip-path="url(#SVGID_14_)" fill="#7C8186" d="M-422,400.5c0-3,2.5-5.5,5.5-5.5c3.1,0,5.5,2.5,5.5,5.5c0,3-2.5,5.5-5.5,5.5
			C-419.6,406-422,403.5-422,400.5"/>
		<path clip-path="url(#SVGID_14_)" fill="#7C8186" d="M-422,400.5c0-3,2.5-5.5,5.5-5.5c3,0,5.5,2.5,5.5,5.5c0,3-2.5,5.5-5.5,5.5
			C-419.6,406-422,403.5-422,400.5"/>
		<path clip-path="url(#SVGID_14_)" fill="#7F8488" d="M-422,400.5c0-3,2.4-5.4,5.5-5.4c3,0,5.5,2.4,5.5,5.4c0,3-2.4,5.4-5.5,5.4
			C-419.5,405.9-422,403.5-422,400.5"/>
		<path clip-path="url(#SVGID_14_)" fill="#81868C" d="M-421.9,400.5c0-3,2.4-5.4,5.4-5.4c3,0,5.4,2.4,5.4,5.4c0,3-2.4,5.4-5.4,5.4
			C-419.5,405.9-421.9,403.5-421.9,400.5"/>
		<path clip-path="url(#SVGID_14_)" fill="#83898D" d="M-421.9,400.5c0-2.9,2.4-5.3,5.4-5.3c3,0,5.4,2.4,5.4,5.3
			c0,2.9-2.4,5.3-5.4,5.3C-419.5,405.8-421.9,403.5-421.9,400.5"/>
		<path clip-path="url(#SVGID_14_)" fill="#868C91" d="M-421.8,400.5c0-2.9,2.4-5.3,5.3-5.3c2.9,0,5.3,2.4,5.3,5.3
			c0,2.9-2.4,5.3-5.3,5.3C-419.5,405.8-421.8,403.4-421.8,400.5"/>
		<path clip-path="url(#SVGID_14_)" fill="#888E93" d="M-421.8,400.5c0-2.9,2.4-5.2,5.3-5.2s5.3,2.3,5.3,5.2c0,2.9-2.4,5.2-5.3,5.2
			S-421.8,403.4-421.8,400.5"/>
		<path clip-path="url(#SVGID_14_)" fill="#898F95" d="M-421.7,400.5c0-2.9,2.3-5.2,5.2-5.2c2.9,0,5.2,2.3,5.2,5.2
			c0,2.9-2.3,5.2-5.2,5.2C-419.4,405.7-421.7,403.4-421.7,400.5"/>
		<path clip-path="url(#SVGID_14_)" fill="#8D9298" d="M-421.7,400.5c0-2.8,2.3-5.1,5.2-5.1c2.9,0,5.2,2.3,5.2,5.1
			c0,2.8-2.3,5.1-5.2,5.1C-419.4,405.7-421.7,403.4-421.7,400.5"/>
		<path clip-path="url(#SVGID_14_)" fill="#8E939A" d="M-421.6,400.5c0-2.8,2.3-5.1,5.1-5.1c2.8,0,5.1,2.3,5.1,5.1
			c0,2.8-2.3,5.1-5.1,5.1C-419.3,405.6-421.6,403.3-421.6,400.5"/>
		<path clip-path="url(#SVGID_14_)" fill="#91979E" d="M-421.6,400.5c0-2.8,2.3-5,5.1-5s5.1,2.3,5.1,5c0,2.8-2.3,5.1-5.1,5.1
			S-421.6,403.3-421.6,400.5"/>
		<path clip-path="url(#SVGID_14_)" fill="#959AA1" d="M-421.5,400.5c0-2.8,2.2-5,5-5c2.8,0,5,2.2,5,5c0,2.8-2.2,5-5,5
			C-419.3,405.5-421.5,403.3-421.5,400.5"/>
		<path clip-path="url(#SVGID_14_)" fill="#989DA3" d="M-421.5,400.5c0-2.7,2.2-5,5-5c2.7,0,5,2.2,5,5c0,2.7-2.2,5-5,5
			C-419.3,405.5-421.5,403.2-421.5,400.5"/>
		<path clip-path="url(#SVGID_14_)" fill="#9AA0A7" d="M-421.4,400.5c0-2.7,2.2-4.9,4.9-4.9c2.7,0,4.9,2.2,4.9,4.9
			c0,2.7-2.2,4.9-4.9,4.9C-419.2,405.4-421.4,403.2-421.4,400.5"/>
		<path clip-path="url(#SVGID_14_)" fill="#9CA1A8" d="M-421.4,400.5c0-2.7,2.2-4.9,4.9-4.9c2.7,0,4.9,2.2,4.9,4.9
			c0,2.7-2.2,4.9-4.9,4.9C-419.2,405.4-421.4,403.2-421.4,400.5"/>
		<path clip-path="url(#SVGID_14_)" fill="#A1A5AC" d="M-421.4,400.5c0-2.7,2.2-4.8,4.8-4.8c2.7,0,4.8,2.2,4.8,4.8
			c0,2.7-2.2,4.8-4.8,4.8C-419.2,405.3-421.4,403.2-421.4,400.5"/>
		<path clip-path="url(#SVGID_14_)" fill="#A3A7AE" d="M-421.3,400.5c0-2.6,2.1-4.8,4.8-4.8c2.6,0,4.8,2.1,4.8,4.8
			c0,2.6-2.1,4.8-4.8,4.8C-419.2,405.3-421.3,403.1-421.3,400.5"/>
		<path clip-path="url(#SVGID_14_)" fill="#A5A9B0" d="M-421.3,400.5c0-2.6,2.1-4.7,4.7-4.7c2.6,0,4.7,2.1,4.7,4.7
			c0,2.6-2.1,4.7-4.7,4.7C-419.1,405.2-421.3,403.1-421.3,400.5"/>
		<path clip-path="url(#SVGID_14_)" fill="#A7ABB2" d="M-421.2,400.5c0-2.6,2.1-4.7,4.7-4.7c2.6,0,4.7,2.1,4.7,4.7
			c0,2.6-2.1,4.7-4.7,4.7C-419.1,405.2-421.2,403.1-421.2,400.5"/>
		<path clip-path="url(#SVGID_14_)" fill="#AAAEB5" d="M-421.2,400.5c0-2.6,2.1-4.6,4.6-4.6c2.6,0,4.6,2.1,4.6,4.6
			c0,2.6-2.1,4.6-4.6,4.6C-419.1,405.1-421.2,403.1-421.2,400.5"/>
		<path clip-path="url(#SVGID_14_)" fill="#ADB1B8" d="M-421.1,400.5c0-2.5,2.1-4.6,4.6-4.6c2.5,0,4.6,2,4.6,4.6
			c0,2.5-2.1,4.6-4.6,4.6C-419.1,405.1-421.1,403-421.1,400.5"/>
		<path clip-path="url(#SVGID_14_)" fill="#B0B4BB" d="M-421.1,400.5c0-2.5,2-4.5,4.5-4.5c2.5,0,4.5,2,4.5,4.5c0,2.5-2,4.5-4.5,4.5
			C-419,405-421.1,403-421.1,400.5"/>
		<path clip-path="url(#SVGID_14_)" fill="#B1B6BD" d="M-421,400.5c0-2.5,2-4.5,4.5-4.5c2.5,0,4.5,2,4.5,4.5c0,2.5-2,4.5-4.5,4.5
			C-419,405-421,403-421,400.5"/>
		<path clip-path="url(#SVGID_14_)" fill="#B4B7BE" d="M-421,400.5c0-2.4,2-4.4,4.4-4.4c2.5,0,4.4,2,4.4,4.4c0,2.4-2,4.4-4.4,4.4
			C-419,404.9-421,403-421,400.5"/>
		<path clip-path="url(#SVGID_14_)" fill="#B4B8BF" d="M-420.9,400.5c0-2.4,2-4.4,4.4-4.4c2.4,0,4.4,2,4.4,4.4c0,2.4-2,4.4-4.4,4.4
			C-419,404.9-420.9,402.9-420.9,400.5"/>
		<path clip-path="url(#SVGID_14_)" fill="#B6BAC1" d="M-420.9,400.5c0-2.4,1.9-4.3,4.3-4.3c2.4,0,4.3,1.9,4.3,4.3
			c0,2.4-1.9,4.3-4.3,4.3C-418.9,404.8-420.9,402.9-420.9,400.5"/>
		<path clip-path="url(#SVGID_14_)" fill="#B6BAC1" d="M-420.8,400.5c0-2.4,1.9-4.3,4.3-4.3c2.4,0,4.3,1.9,4.3,4.3
			c0,2.4-1.9,4.3-4.3,4.3C-418.9,404.8-420.8,402.9-420.8,400.5"/>
	</g>
	<g>
		<polygon points="-456.9,400.2 -457.4,401.4 -454.1,401.4 -453.6,400.2 		"/>
		<polygon points="-431.6,403.7 -431.6,403.3 -431.8,403.3 -432,403.9 -431.9,403.9 -431.7,403.4 -431.8,403.9 -431.6,403.9 
			-431.3,403.4 -431.5,403.9 -431.4,403.9 -431.2,403.3 -431.4,403.3 		"/>
		<path d="M-478.7,401.2c-0.3,0.6-0.6,1.4-0.6,1.4l0,0.1c0,0.1-0.1,0.1-0.1,0.2c-0.1,0.1-0.2,0.1-0.7,0.1c-0.3,0-0.6,0-0.7-0.1
			c-0.1-0.1-0.1-0.3,0-0.6l1.5-3.3l0.3-0.6l0.1-0.1c0,0,0.1-0.3,0.3-0.4c0.1-0.1,0.3-0.1,0.6-0.1c0.5,0,0.5,0,0.6,0.2
			c0,0,0,0.1,0,0.2c0,0,0,0.1,0,0.2c0,0,0,0.1,0,0.1s-0.1,0.2-0.2,0.5l0,0l-0.1,0.2h3.2l0-0.1c0,0,0-0.1,0-0.1v0
			c0.1-0.2,0.2-0.7,0.3-0.8l0-0.1l0-0.1l0-0.1c-0.1-0.7-0.6-0.8-1-0.9l-0.2,0l-0.3,0l-4.8,0c-1,0-1.4,0.7-1.4,0.8
			c-0.1,0.2-0.4,0.7-0.6,1.3c-0.6,1.3-1.5,3.1-1.7,3.8c0,0.1,0,0.2,0,0.3c0,0.1,0,0.2,0.1,0.3c0.2,0.3,0.7,0.4,0.8,0.4l0.1,0l0.1,0
			c0,0,0.1,0,0.1,0c2.5,0,4.1,0,4.7,0c0.9,0,1.3-0.3,1.6-0.6c0,0,0.1-0.1,0.1-0.1c0-0.1,0.1-0.2,0.1-0.2l0.9-1.9L-478.7,401.2
			L-478.7,401.2z"/>
		<polygon points="-431.9,403.3 -432.4,403.3 -432.4,403.4 -432.2,403.4 -432.4,403.9 -432.3,403.9 -432.1,403.4 -431.9,403.4 		"/>
		<path d="M-444.4,399C-444.4,399-444.4,399-444.4,399L-444.4,399c0.2-0.4,0.3-0.7,0.3-0.7c0-0.1,0-0.1,0-0.1l0-0.1l0-0.1l0-0.2
			c-0.1-0.6-0.6-0.8-1-0.8l-0.3,0l-0.2,0h-4.1c-0.5,0-0.9,0.2-1.4,0.5c-0.5,0.4-0.7,0.9-0.9,1.5l-0.1,0.1l2.8,0l0.1-0.1l0.3-0.6
			l0.1-0.2l0.1-0.1c0.1-0.1,0.1-0.2,0.3-0.3c0,0,0.1,0,0.2,0l0.3,0c0.4,0,0.6,0,0.7,0.2c0,0.1,0.1,0.1,0.1,0.2c0,0,0,0.1,0,0.2
			c0,0.1,0,0.1,0,0.1l-0.2,0.5l-0.2,0.5l-4.2,0.3c-0.9,0-1.1,0.7-1.1,0.7c0,0-0.9,2.1-1,2.3l0,0.1l0,0.1l0,0.1l0,0.1
			c0,0.8,0.8,0.9,1,0.9l0.1,0l0.2,0c0,0,4,0,4.5,0c0.4,0,1-0.1,1.3-0.3c0.4-0.2,0.6-0.6,0.6-0.7C-446,402.8-444.9,400.3-444.4,399
			L-444.4,399z M-448.1,400.7c0,0-0.9,1.9-1,2.1c-0.2,0.2-0.2,0.2-0.7,0.2l-0.3,0c-0.2,0-0.3,0-0.4-0.1c-0.1-0.1-0.1-0.2-0.1-0.2
			l0-0.1c0,0,0.1-0.2,0.1-0.2l0.5-1.2l0,0c0.2-0.5,0.7-0.5,0.7-0.5l1.2-0.1l0.1,0L-448.1,400.7z"/>
		<path d="M-457.2,398.6c0.1-0.1,0.2-0.4,0.1-0.7c0-0.3-0.2-0.5-0.5-0.7c-0.8-0.4-1.8-0.2-1.9-0.2l-0.1,0l-0.3,0.1
			c-0.9,0.2-1.2,0.2-1.3,0.2c0,0,0,0-0.1,0l0-0.1l0-0.3l-3,0l-0.9,2l-2.2,4.9h3l2.2-4.9l0.2-0.4c0,0,0-0.1,0.1-0.2
			c0.1-0.1,0.2-0.2,0.7-0.2l0.1,0c0.3,0,0.5,0,0.7,0.1c0.1,0.1,0.1,0.1,0.1,0.3c0,0.1,0,0.2-0.1,0.3l0,0.1l-2.2,4.9l3,0l2.1-4.9
			L-457.2,398.6z"/>
		<path d="M-431,397.2c-0.8-0.5-1.8-0.2-1.9-0.2l-2.2,0.5c-0.1,0-0.2,0.1-0.3,0.1c0,0,0,0-0.1-0.1l0-0.1c-0.1-0.1-0.2-0.2-0.3-0.2
			c-0.7-0.4-1.8-0.2-1.9-0.2l-0.4,0.1c-0.8,0.2-1.2,0.2-1.4,0.2c0,0-0.1,0-0.1,0c0,0,0-0.1,0-0.1l0-0.3l-3,0l-0.9,2l-2.2,4.9h3
			l2.2-4.9l0.2-0.4l0.1-0.2c0.1-0.1,0.2-0.2,0.7-0.2l0.1,0c0.3,0,0.5,0,0.7,0.1c0.1,0.1,0.1,0.1,0.1,0.3c0,0.1,0,0.2-0.1,0.3
			c0,0,0,0,0,0.1h0c-0.3,0.6-2.2,4.9-2.2,4.9l3,0c0,0,1.6-3.7,2.1-4.9h-0.1c0,0,0,0,0,0h0.1c0.1-0.2,0.1-0.3,0.1-0.3l0.1-0.2
			c0.1-0.2,0.4-0.3,0.7-0.3l0.1,0c0.3,0,0.6,0,0.7,0.1c0.1,0.1,0.1,0.1,0.1,0.2c0,0.1,0,0.1-0.1,0.3l-0.1,0.1l0,0l-2.2,4.9l3,0
			l2.1-4.9l0.2-0.5c0.1-0.1,0.1-0.4,0.1-0.6C-430.6,397.7-430.7,397.4-431,397.2z"/>
		<path d="M-466.1,399C-466.1,399-466.1,399-466.1,399L-466.1,399c0.2-0.4,0.3-0.7,0.3-0.7c0-0.1,0-0.1,0-0.1c0,0,0,0,0-0.1l0-0.1
			l0-0.2c-0.1-0.6-0.6-0.8-1-0.8l-0.3,0l-0.2,0h-4.1c-0.5,0-0.9,0.2-1.4,0.5c-0.5,0.4-0.7,0.9-0.9,1.5l-0.1,0.1l2.8,0l0.1-0.1
			l0.3-0.6l0.1-0.2c0,0,0-0.1,0.1-0.1c0.1-0.1,0.1-0.2,0.3-0.3c0,0,0.1,0,0.2,0l0.3,0c0.4,0,0.6,0,0.7,0.2c0,0.1,0.1,0.1,0.1,0.2
			c0,0,0,0.1,0,0.2c0,0.1,0,0.1,0,0.1l-0.2,0.5l-0.2,0.5l-4.2,0.3c-0.9,0-1.1,0.7-1.1,0.7c0,0-0.9,2.1-1,2.3l0,0.1l0,0.1l0,0.1
			l0,0.1c0,0.8,0.8,0.9,1,0.9l0.1,0l0.2,0c0,0,4,0,4.5,0c0.4,0,1-0.1,1.3-0.3c0.4-0.2,0.6-0.6,0.6-0.7
			C-467.7,402.8-466.6,400.3-466.1,399L-466.1,399z M-469.8,400.7c0,0-0.9,1.9-1,2.1c-0.2,0.2-0.2,0.2-0.7,0.2l-0.3,0
			c-0.2,0-0.3,0-0.4-0.1c-0.1-0.1-0.1-0.2-0.1-0.2c0,0,0-0.1,0-0.1c0,0,0.1-0.2,0.1-0.2c0,0,0.1-0.2,0.5-1.2l0,0
			c0.2-0.5,0.7-0.5,0.7-0.5l1.2-0.1l0.1,0L-469.8,400.7z"/>
	</g>
</g>
</svg>
