<?xml version="1.0" encoding="utf-8"?>
<!-- Generator: Adobe Illustrator 19.1.0, SVG Export Plug-In . SVG Version: 6.00 Build 0)  -->
<svg version="1.1" id="Layer_1" xmlns="http://www.w3.org/2000/svg" xmlns:xlink="http://www.w3.org/1999/xlink" x="0px" y="0px"
	 width="192px" height="26.7px" viewBox="-543 387.3 192 26.7" enable-background="new -543 387.3 192 26.7" xml:space="preserve">
<g>
	<path d="M-461.7,399.1l1,0.1c0.5,0.1,0.5,0.4,0.5,0.6v1.2h-4.4v-1.2c0-0.3,0.1-0.5,0.5-0.6l1-0.1v-1h-5.7v1l1,0.1
		c0.4,0.1,0.4,0.4,0.4,0.6v3.6c0,0.3-0.1,0.5-0.4,0.6l-1.1,0.1v1h5.7v-1l-1-0.1c-0.4-0.1-0.5-0.4-0.5-0.6v-1.2h4.4v1.2
		c0,0.3-0.1,0.5-0.5,0.6l-1,0.1v1h5.7v-1l-1-0.1c-0.4-0.1-0.4-0.4-0.4-0.6v-3.6c0-0.3,0.1-0.5,0.4-0.6l1-0.1v-1h-5.7L-461.7,399.1
		L-461.7,399.1z"/>
	<path d="M-424.1,398.1h-6.9v1l0.8,0.1c0.4,0,0.5,0.2,0.5,0.5v3.7c0,0.3-0.1,0.5-0.5,0.6l-1,0.1v1h7c2.5,0,4.6-1.1,4.6-3.5
		C-419.4,399.1-421.5,398.1-424.1,398.1L-424.1,398.1z M-424.5,403.8h-2.3v-4.4h2.3c1.4,0,1.9,0.6,1.9,2.2
		C-422.6,403.1-423.2,403.8-424.5,403.8L-424.5,403.8z"/>
	<path d="M-407.6,404.1c-0.4-0.1-0.5-0.4-0.7-0.5c-3.2-5-3.2-5-3.2-5c-0.3-0.4-0.4-0.4-0.7-0.4h-5.3v1l1.3,0.2
		c0.2,0,0.5,0.3,0.3,0.5l-2.4,3.9c-0.1,0.2-0.3,0.4-0.5,0.4l-1,0.1v1h4.5v-1l-0.8-0.1c-0.4,0-0.5-0.3-0.4-0.5l0.4-0.5h4.3l0.4,0.5
		c0.3,0.5-0.1,0.5-0.4,0.6l-0.8,0.1v1h6.1v-1L-407.6,404.1L-407.6,404.1z M-415.4,401.8l1.3-2.2l1.4,2.2H-415.4L-415.4,401.8z"/>
	<path d="M-436,399.1l1,0.1c0.4,0.1,0.4,0.4,0.4,0.6v3.6l-3.7-4.9c-0.2-0.3-0.4-0.4-0.7-0.4s-4.9,0-4.9,0v1l1,0.1
		c0.4,0.1,0.4,0.4,0.4,0.6v3.6c0,0.3-0.1,0.5-0.4,0.6l-1,0.1v1h4.5v-1l-1-0.1c-0.4-0.1-0.5-0.4-0.5-0.6v-3.6l3.7,5
		c0.2,0.3,0.4,0.4,0.7,0.4l0,0c0.2,0,0.9,0,3.4,0v-5.3c0-0.3,0.1-0.5,0.5-0.6l1-0.1v-1h-4.5L-436,399.1L-436,399.1z"/>
	<path d="M-450,397.8c-4.6,0-5.8,2-5.8,3.7c0,1.8,1.2,3.7,5.8,3.7c4.6,0,5.8-2,5.8-3.7C-444.2,399.9-445.4,397.8-450,397.8
		L-450,397.8z M-450,404c-1.8,0-2.5-0.7-2.5-2.4c0-1.7,0.7-2.4,2.5-2.4s2.5,0.7,2.5,2.4S-448.3,404-450,404L-450,404z"/>
	<polygon points="-482.6,405.1 -483.5,404.2 -478.4,403.6 -475.9,405.1 	"/>
	<path d="M-473.9,401.1l-10.9,2l1,0.9l5-0.6c-0.1,0-0.1-0.1-0.1-0.2s0.1-0.2,0.2-0.2c0.1,0,2.8-0.4,3-0.4c0.1,0,0.4-0.1,0.5-0.2
		c0.3-0.1,0.5-0.3,0.5-0.4s0.4-0.3,0.4-0.5c0.1-0.1,0.2-0.2,0.3-0.3C-474.1,401.4-473.9,401.3-473.9,401.1
		C-473.8,401.1-473.8,401.1-473.9,401.1L-473.9,401.1z"/>
	<path d="M-472.2,398.7l-13.5,3.5l0.8,0.7l4.2-0.8c-0.1-0.1-0.1-0.1-0.1-0.2s0-0.1,0.1-0.2l6.8-1.3c0.1,0,0.4-0.1,0.5-0.3
		c0.3-0.2,0.4-0.3,0.4-0.4s0.3-0.4,0.5-0.5c0.1-0.1,0.2-0.3,0.3-0.4C-472.4,399.2-472.2,398.9-472.2,398.7
		C-472.1,398.7-472.1,398.6-472.2,398.7L-472.2,398.7z"/>
	<path d="M-474,394.8c0.3-0.1,1.2-0.5,1.3-0.5c0.2-0.1,0.8-0.4,1.1-0.5c0.3-0.1,1-0.4,1.1-0.4c0.5-0.3,1.2-0.5,1.3-0.5
		c0,0,0.1,0,0.1,0.1c-0.1,0.3-0.2,0.5-0.5,1c-0.1,0.3-0.3,0.5-0.4,0.7c-0.2,0.3-0.4,0.4-0.4,0.5c-0.3,0.3-0.5,0.4-0.6,0.4
		c-0.2,0.1-0.4,0.2-0.6,0.3c-0.1,0-0.8,0.4-1,0.4L-486,401c-0.4,0.1-0.6,0.4-0.6,0.7c0,0.2,0.1,0.4,0.4,0.5l3.4,3.1c0,0-1.4,0-1.5,0
		c0-0.1-0.1-0.3-0.2-0.4c-0.1-0.1-0.1-0.2-0.3-0.4c-0.2-0.2-0.3-0.3-0.4-0.4l-1.8-1.8c-0.4-0.4-0.5-0.7-0.5-1.2s0.4-1.1,1.2-1.3
		L-474,394.8L-474,394.8z"/>
	<path d="M-472.6,396.6c0.2-0.1,0.5-0.2,0.6-0.3c0.1,0,0.4-0.2,0.5-0.2c0.3-0.1,0.5-0.2,0.7-0.4c0,0,0.1,0,0.1,0.1s-0.2,0.4-0.3,0.5
		c-0.1,0.3-0.3,0.4-0.4,0.5c-0.1,0.2-0.3,0.5-0.4,0.5c-0.2,0.2-0.3,0.4-0.4,0.4c-0.3,0.2-0.5,0.3-0.6,0.3l-9.9,2.7
		c-0.1,0-0.1,0.1-0.1,0.2s0,0.1,0.1,0.2l-3.4,0.9l-0.4-0.3c-0.1-0.1-0.2-0.3-0.2-0.4c0-0.3,0.2-0.5,0.5-0.5L-472.6,396.6
		L-472.6,396.6z"/>
</g>
</svg>
