<?xml version="1.0" encoding="utf-8"?>
<!-- Generator: Adobe Illustrator 19.1.0, SVG Export Plug-In . SVG Version: 6.00 Build 0)  -->
<svg version="1.1" id="Layer_1" xmlns="http://www.w3.org/2000/svg" xmlns:xlink="http://www.w3.org/1999/xlink" x="0px" y="0px"
	 width="192px" height="26.7px" viewBox="-543 387.3 192 26.7" enable-background="new -543 387.3 192 26.7" xml:space="preserve">
<g>
	<path d="M-479.9,400.6h2.2l0,0c3.3,0.1,9.1,1.9,5.9,4.2l0,0h10.4l0,0c0-1.3-1.6-3.7-5.7-4.3c4.1-0.6,5.7-3,5.7-4.3l0,0h-10.4l0,0
		c2.7,2.5-3.7,4-5.9,4.1l0,0h-2.2v-4.1h-7.9v8.5h7.9V400.6L-479.9,400.6L-479.9,400.6z"/>
	<path d="M-425.4,403.7c0.4,0,0.9-0.1,0.9-0.5c0-1.3-3.8-0.2-3.8-2.5c0-1.4,1.4-1.9,2.8-1.9c1.3,0,2.9,0.2,3,1.8l0,0h-2.1l0,0
		c0-0.2-0.1-0.4-0.3-0.5c-0.2-0.1-0.5-0.2-0.5-0.2c-0.5,0-0.6,0.2-0.6,0.5c0,0.9,3.8-0.1,3.8,2.6c0,1.2-1,2.1-3.1,2.1
		c-1.3,0-2.8-0.5-2.8-2.1l0,0h2l0,0C-426.2,403.3-426,403.6-425.4,403.7L-425.4,403.7L-425.4,403.7L-425.4,403.7z"/>
	<polygon points="-408.6,404.9 -408.6,398.9 -406.2,398.9 -406.2,404.9 	"/>
	<polygon points="-408.6,396.5 -406.2,396.5 -406.2,398 -408.6,398 	"/>
	<polygon points="-439.4,401.9 -438.5,404.9 -436.3,404.9 -434.3,398.8 -436.6,398.8 -437.6,401.9 -437.5,401.9 -438.5,398.8 
		-440.4,398.8 -441.4,401.9 -441.4,401.9 -442.3,398.8 -444.8,398.8 -442.7,404.9 -440.2,404.9 -439.4,401.9 	"/>
	<polygon points="-458.8,396.5 -458.8,404.9 -456.4,404.9 -456.4,402.4 -455.5,401.5 -453.3,404.9 -450.3,404.9 -453.8,399.8 
		-450.7,396.5 -453.9,396.5 -456.4,399.1 -456.4,396.5 	"/>
	<polygon points="-413.1,403.3 -413.1,405 -415.3,405 -415.3,396.5 -413.1,396.5 -413.1,400.6 -411.6,398.9 -409.1,398.9 
		-411.1,401.1 -408.8,405 -411.4,405 -412.6,402.8 	"/>
	<path d="M-444.5,404v-2.8l0,0c0-1.4-0.5-2.3-2.9-2.3c-2.2,0-3,0.7-3.1,2l0,0h2.1l0,0c0.2-0.6,0.7-0.7,1.1-0.7
		c0.3,0,0.7,0.1,0.7,0.5c0,1.2-4.1,0.4-4.1,2.6c0,1.3,0.8,1.8,2,1.8c0.9,0,1.4-0.2,2.1-0.5l0,0l0.3,0.5h2v-0.1l0,0
		C-444.5,404.6-444.5,404.2-444.5,404L-444.5,404L-444.5,404L-444.5,404z M-447.6,403.6c-0.5,0.1-0.8-0.2-0.8-0.4l0,0l0,0l0,0
		c0-0.8,1-0.7,1.8-1.1C-446.6,403-446.8,403.5-447.6,403.6L-447.6,403.6L-447.6,403.6L-447.6,403.6z"/>
	<path d="M-415.8,404v-2.8l0,0c0-1.4-0.5-2.3-2.9-2.3c-2.2,0-3,0.7-3.1,2l0,0h2.1l0,0c0.2-0.6,0.7-0.7,1.1-0.7
		c0.3,0,0.7,0.1,0.7,0.5c0,1.2-4.1,0.4-4.1,2.6c0,1.3,0.8,1.8,2,1.8c0.9,0,1.4-0.2,2.1-0.5l0,0l0.3,0.5h2v-0.1l0,0
		C-415.9,404.6-415.8,404.2-415.8,404L-415.8,404L-415.8,404L-415.8,404z M-419,403.6c-0.4,0.1-0.8-0.2-0.8-0.4l0,0l0,0l0,0
		c0-0.8,1-0.7,1.8-1.1C-417.9,403-418.2,403.5-419,403.6L-419,403.6L-419,403.6L-419,403.6z"/>
	<path d="M-428.5,404v-2.8l0,0c0-1.4-0.5-2.3-2.9-2.3c-2.2,0-3,0.7-3.1,2l0,0h2.1l0,0c0.2-0.6,0.7-0.7,1.1-0.7
		c0.3,0,0.7,0.1,0.7,0.5c0,1.2-4,0.4-4,2.6c0,1.3,0.8,1.8,2,1.8c0.9,0,1.4-0.2,2.1-0.5l0,0l0.3,0.5h2v-0.1l0,0
		C-428.6,404.6-428.5,404.2-428.5,404L-428.5,404L-428.5,404L-428.5,404z M-431.8,403.6c-0.4,0.1-0.8-0.2-0.8-0.4l0,0l0,0l0,0
		c0-0.8,1-0.7,1.8-1.1C-430.8,403-431,403.5-431.8,403.6L-431.8,403.6L-431.8,403.6L-431.8,403.6z"/>
</g>
</svg>
