<?xml version="1.0" encoding="utf-8"?>
<!-- Generator: Adobe Illustrator 19.1.0, SVG Export Plug-In . SVG Version: 6.00 Build 0)  -->
<svg version="1.1" id="Layer_1" xmlns="http://www.w3.org/2000/svg" xmlns:xlink="http://www.w3.org/1999/xlink" x="0px" y="0px"
	 width="192px" height="26.7px" viewBox="-543 387.3 192 26.7" enable-background="new -543 387.3 192 26.7" xml:space="preserve">
<g>
	<path d="M-469.5,396.1l2-0.1h2.2c3.2,0,4.3,0.7,4.3,4v0.4c0,3.5-0.3,4.7-4.4,4.9l-2.1,0.1c-0.4,0-0.5,0-0.9,0c-0.6,0-1.3,0-2-0.1
		c-2-0.2-3.2-0.8-3.3-3.1c0-0.5,0-1.2,0-1.7C-473.8,397-473.3,396.1-469.5,396.1C-469.5,396.1-473.3,396.1-469.5,396.1L-469.5,396.1
		z"/>
	<polygon points="-457.2,403.2 -451.5,403.2 -451.5,405.4 -460.1,405.4 -460.1,396.1 -457.2,396.1 	"/>
	<polygon points="-422.1,405.4 -424.9,405.4 -424.9,396.1 -422.1,396.1 	"/>
	<path d="M-419.1,396.1c-1.5,0-2.3,1.3-2.3,2.8c0,1.5,0.7,2.9,2.3,2.9h5.9c0.4,0,0.6,0.3,0.6,0.6c0,0.4-0.3,0.6-0.6,0.6h-7.8v2.2
		h9.2c1.6,0,2.3-1.3,2.3-2.9s-0.7-2.9-2.3-2.9h-5.8c-0.4,0-0.5-0.3-0.5-0.5c0-0.4,0.3-0.5,0.5-0.5h7.6v-2.3H-419.1L-419.1,396.1z"/>
	<path d="M-409,396c0.5,0,0.7,0.4,0.7,0.7c0,0.4-0.4,0.7-0.7,0.7c-0.4,0-0.7-0.4-0.7-0.7C-409.7,396.2-409.3,396-409,396v-0.2
		c-0.4,0-0.9,0.5-0.9,0.9c0,0.5,0.5,0.9,0.9,0.9c0.5,0,0.9-0.4,0.9-0.9c0-0.4-0.4-0.9-0.9-0.9V396L-409,396z"/>
	<path d="M-409.2,396.2h0.3c0.1,0,0.3,0,0.3,0.2c0,0.2-0.3,0.2-0.4,0.2h-0.2v0.1h0.3l0.3,0.5h0.2l-0.4-0.5c0.2,0,0.4-0.1,0.4-0.3
		s-0.1-0.3-0.4-0.3L-409.2,396.2l-0.1,0.9h0.1V396.2L-409.2,396.2z"/>
	<path d="M-434.9,398.5h4.5h0.3c0.3,0,0.5,0,0.8,0.1c0.5,0.2,0.5,0.4,0.5,1c0,1.1-0.1,1.3-1.4,1.3h-0.4h-4.2v2.2h4.7
		c1.3,0,1.3,0.4,1.3,1.4v0.9h2.8v-1.8c0-1.3-0.7-1.6-1.9-1.8c0.5-0.2,1.3-0.4,1.6-0.9c0.4-0.5,0.4-1.3,0.4-1.9
		c0-2.2-0.9-2.9-3.1-2.9h-8.6v9.3h2.8L-434.9,398.5L-434.9,398.5L-434.9,398.5z"/>
	<path d="M-441.5,403.2v2.2h2.9v-6.3c0-2.2-2-2.9-3.1-2.9h-5.9c-1.1,0-3.1,0.6-3.1,2.9v6.3h2.8v-2.2v-2.2v-1c0-0.9,1-1.3,1.5-1.3
		h3.3c0.5,0,1.5,0.5,1.5,1.3v1h-6.3v2.2H-441.5L-441.5,403.2z"/>
	<path d="M-483.1,398.5h4.1c1.1,0,1.4,0.2,1.4,1.3c0,1-0.5,1.3-1.4,1.3h-4.1v2.2h4.4h0.7c2.8,0,3.2-1.2,3.2-3.6
		c0-2.8-1.1-3.4-3.7-3.4h-7.5v9.3h2.9L-483.1,398.5L-483.1,398.5z"/>
	<polygon fill="#FFFFFF" points="-462.2,400.8 -466,401.4 -465.5,402.5 -466.8,401.8 -467.4,404.3 -468,401.8 -469.3,402.5 
		-468.7,401.4 -472.6,400.8 -468.7,400.2 -469.3,399.2 -468,399.8 -467.4,397.3 -466.8,399.8 -465.5,399.2 -466,400.2 	"/>
</g>
</svg>
