<?xml version="1.0" encoding="utf-8"?>
<!-- Generator: Adobe Illustrator 19.1.0, SVG Export Plug-In . SVG Version: 6.00 Build 0)  -->
<svg version="1.1" id="Layer_1" xmlns="http://www.w3.org/2000/svg" xmlns:xlink="http://www.w3.org/1999/xlink" x="0px" y="0px"
	 width="192px" height="26.7px" viewBox="-543 387.3 192 26.7" enable-background="new -543 387.3 192 26.7" xml:space="preserve">
<g>
	<path d="M-471.2,393.9c-3.7,0-6.8,3-6.8,6.8c0,3.7,3,6.8,6.8,6.8s6.8-3,6.8-6.8C-464.5,397-467.4,393.9-471.2,393.9L-471.2,393.9
		L-471.2,393.9L-471.2,393.9z M-471.2,407.1c-3.6,0-6.5-2.9-6.5-6.5s2.9-6.5,6.5-6.5s6.5,2.9,6.5,6.5
		C-464.8,404.2-467.6,407.1-471.2,407.1L-471.2,407.1L-471.2,407.1L-471.2,407.1z"/>
	<polygon points="-430.8,395.1 -430.8,406 -429,406 -429,401.2 -426.2,401.2 -426.2,406 -424.3,406 -424.3,395.1 -426.2,395.1 
		-426.2,399.4 -429,399.4 -429,395.1 	"/>
	<polygon points="-447.9,406 -447.9,395.1 -444.8,395.1 -443.8,399.8 -442.5,395.1 -439.4,395.1 -439.4,406 -441.2,406 
		-441.2,398.3 -443,404.8 -444.5,404.8 -446.1,398.3 -446.1,406 	"/>
	<polygon points="-460.2,406 -460.2,401.8 -462.5,395.1 -460.4,395.1 -459.1,399.6 -457.4,395.1 -455.5,395.1 -458.2,401.7 
		-458.2,406 	"/>
	<path d="M-433.8,395.1h-3.1l-1.7,10.8h1.8l0.5-2.4h2.2l0.5,2.4h1.9L-433.8,395.1L-433.8,395.1L-433.8,395.1z M-436.1,401.6l0.7-4.9
		l1,4.9H-436.1L-436.1,401.6L-436.1,401.6z"/>
	<path d="M-418.6,395.1h-3.1l-1.7,10.8h1.8l0.4-2.4h2.2l0.5,2.4h1.9L-418.6,395.1L-418.6,395.1L-418.6,395.1z M-421.1,401.6l0.7-4.9
		l1,4.9H-421.1L-421.1,401.6L-421.1,401.6z"/>
	<path d="M-451,395.1h-3.1l-1.7,10.8h1.8l0.4-2.4h2.2l0.5,2.4h1.9L-451,395.1L-451,395.1L-451,395.1z M-453.3,401.6l0.7-4.9l1,4.9
		H-453.3L-453.3,401.6L-453.3,401.6z"/>
	<path d="M-471.2,395c-3.1,0-5.7,2.5-5.7,5.7s2.5,5.7,5.7,5.7s5.7-2.5,5.7-5.7C-465.6,397.5-468.1,395-471.2,395L-471.2,395
		L-471.2,395L-471.2,395z M-467.1,403.2l-1.2-0.3l0,0c0-0.3-0.1-0.4-0.4-0.5c-0.3-0.2-0.4-0.2-0.5-0.1c-0.4,0.1-0.6-0.1-0.9-0.3
		c-0.1,0-0.3-0.1-0.4-0.3c0,1.4,0,2.7,0,2.7l0,0h-0.4v-2.9l0,0c-0.2-0.1-0.3-0.2-0.4-0.3c-0.2,0.1-0.4,0.2-0.4,0.3l0,0v2.9h-0.5l0,0
		c0,0,0-1.3,0-2.7c-0.3,0.2-0.4,0.3-0.4,0.3c-0.3,0.2-0.5,0.4-0.9,0.3c-0.4-0.1-0.4-0.1-0.5,0.1c-0.3,0.2-0.4,0.4-0.4,0.5l0,0
		l-1.2,0.3l0,0c-0.1,0-0.2,0-0.3-0.1c0-0.1,0-0.2,0.1-0.3l0,0l0.8-0.9l0,0c0.2,0.1,0.4,0.1,0.5-0.1c0.3-0.2,0.4-0.3,0.4-0.5
		c0.1-0.4,0.4-0.4,0.5-0.6c0.1,0,0.2-0.1,0.4-0.3c-1.2-0.7-2.3-1.4-2.3-1.4l0,0l0.3-0.4l2.6,1.4l0,0c0.2-0.1,0.3-0.2,0.4-0.3
		c0-0.2,0-0.4,0-0.4l0,0l-2.5-1.4v-0.3l0,0c0,0,1.2,0.6,2.3,1.3c0-0.4,0-0.4,0-0.4c0-0.3,0.1-0.5,0.3-0.9c0.3-0.3,0.3-0.4,0.3-0.5
		c0-0.3-0.1-0.5-0.3-0.5l0,0l0.5-1.2l0,0c0-0.1,0.1-0.2,0.2-0.2c0.1,0,0.2,0.1,0.2,0.2l0,0l0.4,1.2l0,0c-0.2,0.1-0.3,0.3-0.3,0.5
		c0,0.4,0.1,0.4,0.3,0.5c0.3,0.3,0.3,0.5,0.3,0.9c0,0.1,0,0.3,0,0.4c1.3-0.7,2.3-1.3,2.3-1.3l0,0l0.3,0.4l-2.5,1.4l0,0
		c0,0.2,0,0.4,0,0.4c0.2,0.1,0.4,0.2,0.4,0.3l0,0l2.5-1.4l0.3,0.5l0,0c0,0-1.2,0.6-2.3,1.4c0.3,0.2,0.4,0.3,0.4,0.3
		c0.3,0.2,0.5,0.4,0.5,0.6c0.1,0.4,0.2,0.5,0.4,0.5c0.3,0.2,0.4,0.2,0.5,0.1l0,0l0.8,0.9l0,0c0.1,0.1,0.1,0.2,0.1,0.3
		C-467,403.2-467.1,403.2-467.1,403.2L-467.1,403.2L-467.1,403.2L-467.1,403.2z"/>
	<polygon points="-471.2,401.1 -471.5,400.9 -471.5,400.5 -471.2,400.2 -470.8,400.5 -470.8,400.9 	"/>
	<path d="M-471.5,398.9c0-0.4,0.2-0.5,0.4-0.5c0.3,0,0.5,0.1,0.5,0.5l0,0v0.6l0,0c-0.2,0.1-0.3,0.2-0.5,0.3
		c-0.2-0.1-0.3-0.2-0.4-0.3l0,0V398.9L-471.5,398.9L-471.5,398.9z"/>
	<path d="M-472.5,401.8c-0.4,0.2-0.4,0-0.4-0.2c0-0.2-0.2-0.4,0.2-0.4l0,0l0.5-0.4l0,0c0.2,0.1,0.3,0.2,0.5,0.3c0,0.2,0,0.4,0,0.4
		l0,0L-472.5,401.8L-472.5,401.8L-472.5,401.8z"/>
	<path d="M-469.3,401.6c-0.1,0.2-0.3,0.4-0.5,0.2l0,0l-0.5-0.4l0,0c0-0.2,0-0.4,0-0.4c0.2-0.1,0.3-0.2,0.4-0.3l0,0l0.5,0.4l0,0
		C-469.2,401.5-469.2,401.5-469.3,401.6L-469.3,401.6L-469.3,401.6L-469.3,401.6z"/>
	<path d="M-416.3,395.3c-0.2-0.2-0.5-0.3-0.5-0.3c-0.3,0-0.4,0.1-0.5,0.3c-0.2,0.2-0.3,0.4-0.3,0.5c0,0.3,0.1,0.5,0.3,0.5
		c0.2,0.2,0.5,0.3,0.5,0.3c0.3,0,0.5-0.1,0.5-0.3c0.2-0.2,0.3-0.4,0.3-0.5C-416.1,395.8-416.2,395.5-416.3,395.3L-416.3,395.3
		L-416.3,395.3L-416.3,395.3z M-416.4,396.6c-0.2,0.2-0.4,0.3-0.5,0.3c-0.3,0-0.4-0.1-0.4-0.3c-0.2-0.2-0.3-0.4-0.3-0.4
		c0-0.3,0.1-0.5,0.3-0.5c0.2-0.1,0.4-0.3,0.4-0.3c0.3,0,0.4,0.1,0.5,0.3c0.2,0.2,0.3,0.4,0.3,0.5
		C-416.2,396.1-416.2,396.4-416.4,396.6L-416.4,396.6L-416.4,396.6L-416.4,396.6z"/>
	<path d="M-416.6,396.5C-416.6,396.4-416.6,396.4-416.6,396.5c0-0.1,0-0.1,0-0.2l0,0v-0.1l0,0c0-0.1,0-0.1-0.1-0.2
		c0-0.1-0.1-0.1-0.2-0.1c0.1,0,0.1,0,0.2-0.1s0.1-0.1,0.1-0.3s-0.1-0.3-0.2-0.3c-0.1,0-0.2,0-0.3,0l0,0h-0.4v1h0.2V396h0.2l0,0
		c0.1,0,0.2,0,0.2,0c0.1,0,0.1,0.1,0.1,0.3l0,0v0.1l0,0l0,0l0,0l0,0l0,0L-416.6,396.5L-416.6,396.5L-416.6,396.5L-416.6,396.5z
		 M-416.8,395.9c0,0-0.1,0-0.2,0l0,0h-0.2v-0.4h0.2l0,0c0.1,0,0.2,0,0.3,0s0.1,0.1,0.1,0.2C-416.8,395.9-416.8,395.9-416.8,395.9
		L-416.8,395.9L-416.8,395.9L-416.8,395.9z"/>
</g>
</svg>
